<svg style="display: none;" version="1.1" xmlns="http://www.w3.org/2000/svg" xmlns:xlink="http://www.w3.org/1999/xlink">
	<symbol id="btn-prev" viewBox="0 0 92 103">
		<path opacity="0.1" d="M75.2,94.9c2.6-1.5,6.4-3.3,6.7-5c-4-1.4-11.2-2.4-15.7-3.2c-6-1.1-12.5-1.4-18.6-1.9c-7.1-0.6-36.7-5.8-39.3-0.9c4,3.1,10.4,4.9,15.7,6.6c8.1,2.7,15.4,6.8,23.8,8.9c4.1,1,14.1,4.1,18,3.1c4.2-1.1,5.2-4.2,7.7-6.3C73.9,95.6,74.5,95.3,75.2,94.9z"/>
		<path fill="#B8A0A0" d="M50.9,30.9c0.6,19.8,2.7,39.4,3.3,59c0,1.4,0.5,7.3-2.1,5.7c-1-2.8-0.8-6.8-1.3-9.9c-0.9-5.8-1.4-11.7-1.7-17.6c-0.5-10.3-1-20.8-1.7-31C47.1,32.8,46.6,29.4,50.9,30.9z"/>
		<path fill="#A8514F" d="M47.2,33.1c0.7-0.2,1.3-0.4,1.8-0.6c0.5-0.2,1.2-0.4,1.9-0.6c0.2,6.6,0.6,13.2,1,19.8c-0.8-1.4-1.7-2.8-2.5-4.2c-0.6-1-1.1-2.1-1.6-3.2c-0.2-2.5-0.3-4.9-0.5-7.4C47.3,35.5,47.2,34.2,47.2,33.1z"/>
		<path fill="#BA4643" d="M60.1,19.8c2.7-2.9,3.9-3.6,7.9-4.9c4.8-1.6,9.3-4.4,14.4-5c0-0.1,0-0.2,0.2-0.2c0-0.6,0.2-1,0.9-1.1c0.9-0.2,2,0.8,2.6,1.3c1.2,0.9,2.3,1.9,3.3,3c0.9,0.9,1.8,1.8,2.2,3c0.2,0.7,0,1.1-0.4,1.3c0,0,0,0,0,0c-2.9,1.3-5.5,3-8,4.8c-2.3,1.6-4.7,2.8-6.7,4.7c2,3.1,6,6,8.7,8.6c2.1,1.9,5.8,4.4,6.9,7c0.7,1.1-3.2,1.3-3.9,1.3c-1.7,0.1-3.6-0.1-5.1-0.9c0.3-0.1,0.5-0.3,0.7-0.4c-1.2-0.5-2-1.6-3.3-2.6c-4.1-3.2-8.8-5.6-13-8.5c-2.2-1.6-4.5-3.1-6.7-4.6c-0.9-0.6-3.5-1.8-3.9-2.7C56,22.4,59,21,60.1,19.8z"/>
		<path fill="#E95854" stroke="#EF6060" stroke-width="2" stroke-miterlimit="10" d="M26.1,2C31.9,1.9,38.2,3,43.5,3.7c13.1,1.7,28.5,1.8,40,5.8C76.5,12,70.6,18.2,64,22c7.2,6.3,15.6,12,20.8,20.4c-7.2,0.5-14.6-1.8-21.7-2.9c-9.1-1.4-18.2-2.7-27.3-4.2c-4.5-0.7-10.3-1-15.3-2.2L2,16.6L26.1,2z"/>
		<path fill="#E97572" d="M49,5.4c-2.7-0.5-5.2-0.9-7.8-1.1c-2-0.2-4.3-0.2-6.4-0.5v0c2.2,0.7,4.5,1.9,6.6,2.6c3,1,6.2,1.5,9.4,2.1c3.2,0.6,6.2,0.9,9.3-0.1c1.4-0.4,2.6-1.2,4.1-1.4c1.6-0.2,3,0.7,4.4,0.3C59.4,5.7,54.4,6.4,49,5.4z"/>
		<path fill="#FCFCFC" d="M27.1,22.2l5.3,0.1l0.2,1.4l-11.3-0.1L21,22.2l4.4,0.1l-1.4-9l2,0.1c0,0.1-0.1,0.2-0.3,0.2l0.5,3.1l4.4,0.1l0.2,1.4l-4.4,0L27.1,22.2z"/>
		<path fill="#FCFCFC" d="M34.7,18.7L46,20.2l0.1,1.6l-11.3-1.5L34.7,18.7z"/>
		<path fill="#FCFCFC" d="M52.1,24.3l-0.2,1.4c0.7,0.4,1.5,0.7,2.6,1.1c0.8,0.2,4,1.2,5,1.5c-0.2,0.2-0.5,0.7-0.6,1L54.4,28c-2.2-0.7-3.7-1.4-4.4-3c-0.3,0.6-0.6,1.2-1.1,1.5c-0.1-0.3-0.4-0.8-0.7-1.1c0.8-0.6,1.1-2,1.3-3.4l1.4,0.5c0,0.1-0.1,0.1-0.3,0.1c-0.1,0.3-0.1,0.6-0.2,0.9c0.1,0.4,0.3,0.8,0.5,1.1l0.4-2.7L49,21.3l0.1-1l5.3,1.6l-0.1,1l-1.9-0.6l-0.1,1l1.7,0.5l-0.1,1L52.1,24.3z M54.5,17.1L54,21l-4.2-1.3l0.5-4L54.5,17.1z M53,18.2l0.1-0.6l-1.7-0.5l-0.1,0.6L53,18.2z M52.8,19.7l0.1-0.6l-1.7-0.5l-0.1,0.6L52.8,19.7z M55.2,19.2l1.3,0.4c0.1-0.2,0.3-0.5,0.4-0.7l-2.1-0.6l0.1-1l5.6,1.7l-0.1,1l-2.2-0.7c-0.1,0.2-0.3,0.5-0.4,0.7l2,0.6L59,26l-1-0.3c0.6,0.7,1.2,1.5,1.6,2l-1.2,0.1c-0.3-0.5-0.9-1.3-1.3-1.9l0.9-0.2l-2.4-0.7l1,0.7c0,0.1-0.2,0.1-0.3,0c-0.6,0.4-1.4,0.7-2.2,0.8c-0.2-0.3-0.5-0.8-0.7-1c0.7-0.1,1.4-0.3,1.9-0.7l-0.7-0.2L55.2,19.2z M58.2,21.7l0.1-0.5l-2-0.6l-0.1,0.5L58.2,21.7z M58,23.1l0.1-0.5l-2-0.6l-0.1,0.5L58,23.1z M57.8,24.6l0.1-0.6l-2-0.6L55.9,24L57.8,24.6z"/>
		<path fill="#E97572" d="M78.7,38.5c-0.6-0.7-1.2-1.7-2-2.2c-1-0.8-1.8-1.6-2.7-2.5c-0.8-0.7-2.3-0.9-2.5,0.3c-0.2,1.1-0.9,1.6-2,2c-1.3,0.4-2.7,0.6-4.1,0.7c-0.8,0.1-1.8,0.1-2.7,0.2c-0.1,0.1-0.2,0.2-0.1,0.3c0.2,0.3,0.6,0.3,0.9,0.3c0.4,0.1,0.9,0.1,1.3,0.1c1,0.1,2.1,0.3,3.1,0.6c1.1,0.3,2.1,0.3,3.2,0.5c1.3,0.2,2.4,0.5,3.7,0.4c1.2-0.1,2.3,0.4,3.4,0.7C79.9,40.4,79.5,39.2,78.7,38.5z"
		/>
		<path fill="#E97572" d="M6.2,17.9c-0.6-0.1-1.6-0.7-1.3-1.3c0.2-0.6,1-1,1.5-1.3c0.7-0.4,1.4-0.8,2.1-1.3c1-0.6,2.1-1.2,3.2-1.7c1-0.5,1.9-1.2,2.9-1.6c2.2-1,4.2-2.4,6.1-3.9c0.9-0.7,2.1-1.6,3.2-2.1c0.4-0.2,0.8-0.3,1.2-0.6c0.5-0.3,1.2-0.8,1.8-0.8c0.5,0.1,0.6,0.5,0.4,0.9c-0.2,0.3-0.5,0.5-0.8,0.7c-0.6,0.5-1.2,0.9-1.8,1.4c-1.6,1.3-3.4,2.4-5.1,3.6c-2.1,1.5-4,3.1-6.1,4.7c-1.1,0.8-2.2,1.5-3.4,2.2c-0.5,0.3-1,0.8-1.6,1c-0.6,0.2-1.4,0.3-2,0.1"/>
		<path fill="#962E2C" d="M73.4,25.7c0.3,0.2,0.6,0.3,1,0.2c0.7-0.1,1.3-0.5,1.8-0.9c2-1.5,3.8-3.2,5.7-4.8c1-0.8,5.6-4.9,1.9-5c-2.9-0.1-5.7,1.4-8.3,2.6c-1.4,0.7-2.8,1.3-4.1,2.1c-0.9,0.5-2.1,1-2.7,1.8c-0.6,0.9-0.3,1,0.6,1.5c0.7,0.4,1.4,0.8,2.1,1.2C72.1,24.8,72.8,25.3,73.4,25.7z"/>
	</symbol>
	<symbol id="btn-next" viewBox="0 0 92 103">
		<path opacity="0.1" d="M16.9,94.9c-2.6-1.5-6.4-3.3-6.7-5c4-1.4,11.2-2.4,15.7-3.2c6-1.1,12.5-1.4,18.6-1.9c7.1-0.6,36.7-5.8,39.3-0.9c-4,3.1-10.4,4.9-15.7,6.6c-8.1,2.7-15.4,6.8-23.8,8.9c-4.1,1-14.1,4.1-18,3.1c-4.2-1.1-5.2-4.2-7.7-6.3C18.1,95.6,17.5,95.3,16.9,94.9z"/>
		<path fill="#B8A0A0" d="M41.1,30.9c-0.6,19.8-2.7,39.4-3.3,59c0,1.4-0.5,7.3,2.1,5.7c1-2.8,0.8-6.8,1.3-9.9c0.9-5.8,1.4-11.7,1.7-17.6c0.5-10.3,1-20.8,1.7-31C44.9,32.8,45.5,29.4,41.1,30.9z"/>
		<path fill="#A8514F" d="M44.8,33.1c-0.7-0.2-1.3-0.4-1.8-0.6c-0.5-0.2-1.2-0.4-1.9-0.6c-0.2,6.6-0.6,13.2-1,19.8c0.8-1.4,1.7-2.8,2.5-4.2c0.6-1,1.1-2.1,1.6-3.2c0.2-2.5,0.3-4.9,0.5-7.4C44.7,35.5,44.9,34.2,44.8,33.1z"/>
		<path fill="#BA4643" d="M31.9,19.8c-2.7-2.9-3.9-3.6-7.9-4.9c-4.8-1.6-9.3-4.4-14.4-5c0-0.1,0-0.2-0.2-0.2c0-0.6-0.2-1-0.9-1.1C7.7,8.4,6.7,9.4,6,9.9c-1.2,0.9-2.3,1.9-3.3,3c-0.9,0.9-1.8,1.8-2.2,3c-0.2,0.7,0,1.1,0.4,1.3c0,0,0,0,0,0c2.9,1.3,5.5,3,8,4.8c2.3,1.6,4.7,2.8,6.7,4.7c-2,3.1-6,6-8.7,8.6c-2.1,1.9-5.8,4.4-6.9,7c-0.7,1.1,3.2,1.3,3.9,1.3c1.7,0.1,3.6-0.1,5.1-0.9c-0.3-0.1-0.5-0.3-0.7-0.4c1.1-0.5,2-1.6,3.3-2.6c4.1-3.2,8.8-5.6,13-8.5c2.2-1.6,4.5-3.1,6.7-4.6c0.9-0.6,3.5-1.8,3.9-2.7C36.1,22.4,33.1,21,31.9,19.8z"/>
		<path fill="#E95854" stroke="#EF6060" stroke-width="2" stroke-miterlimit="10" d="M65.9,2C60.1,1.9,53.8,3,48.6,3.7c-13.1,1.7-28.5,1.8-40,5.8C15.5,12,21.4,18.2,28,22c-7.2,6.3-15.6,12-20.8,20.4c7.2,0.5,14.6-1.8,21.7-2.9c9.1-1.4,18.2-2.7,27.3-4.2c4.5-0.7,10.3-1,15.3-2.2L90,16.6L65.9,2z"/>
		<path fill="#E97572" d="M52,9c-0.4,0.1-0.8,0.2-1.2,0.3c-0.7,0.2-2.2,0.5-2.3,1.4c-0.1,1.8,5.6,0.6,6.4,0.4c1-0.2,7.3-0.4,6.1-2.1c-0.8-1.1-2.7-0.9-3.8-0.9c-0.8,0-1.6,0.2-2.5,0.3C53.8,8.6,52.9,8.8,52,9z"/>
		<path fill="#E97572" d="M13.2,38.1c0.6-0.7,1.2-1.7,2-2.2c1-0.8,1.8-1.6,2.7-2.5c0.8-0.7,2.3-0.9,2.5,0.3c0.2,1.1,0.9,1.6,2,2c1.3,0.4,2.7,0.6,4.1,0.7c0.8,0.1,1.8,0.1,2.6,0.2c0.1,0.1,0.2,0.2,0.1,0.3c-0.2,0.3-0.6,0.3-0.9,0.3c-0.4,0.1-0.9,0.1-1.3,0.1c-1,0.1-2.1,0.3-3.1,0.6c-1.1,0.3-2.1,0.3-3.2,0.5c-1.3,0.2-2.4,0.5-3.7,0.4c-1.2-0.1-2.3,0.4-3.4,0.7C12,40,12.4,38.9,13.2,38.1z"/>
		<path fill="#E97572" d="M85.7,17.6c0.6-0.1,1.6-0.7,1.3-1.3c-0.2-0.6-1-1-1.5-1.3c-0.7-0.4-1.4-0.8-2.1-1.3c-1-0.6-2.1-1.2-3.2-1.7c-1-0.5-1.9-1.2-2.9-1.6c-2.2-1-4.2-2.4-6.1-3.9c-0.9-0.7-2.1-1.6-3.2-2.1c-0.4-0.2-0.8-0.3-1.2-0.6C66.3,3.6,65.6,3,65,3.1c-0.5,0.1-0.6,0.5-0.4,0.9c0.2,0.3,0.5,0.5,0.8,0.7c0.6,0.5,1.2,0.9,1.8,1.4c1.6,1.3,3.4,2.4,5.1,3.6c2.1,1.5,4,3.1,6.1,4.7c1.1,0.8,2.2,1.5,3.4,2.2c0.5,0.3,1,0.8,1.6,1c0.6,0.2,1.4,0.3,2,0.1"/>
		<path fill="#962E2C" d="M18.5,25.3c-0.3,0.2-0.6,0.3-1,0.2c-0.7-0.1-1.3-0.5-1.8-0.9c-2-1.5-3.8-3.2-5.7-4.8c-1-0.8-5.6-4.9-1.9-5c2.9-0.1,5.7,1.4,8.2,2.6c1.4,0.7,2.8,1.3,4.1,2.1c0.9,0.5,2.1,1,2.7,1.8c0.7,0.9,0.3,1-0.6,1.5c-0.7,0.4-1.4,0.8-2.1,1.2C19.8,24.5,19.1,24.9,18.5,25.3z"/>
		<path fill="#FCFCFC" d="M42.6,17.7L38,18.6c0,0.1-0.1,0.2-0.3,0.3l0.2,1.7l0.2-0.3c1.4,0.4,3.4,1.1,4.4,1.6l-0.9,1.5c-0.8-0.5-2.2-1.1-3.5-1.6l0.6,5.7L37,27.9L36.2,19l-4.4,0.9l-0.1-1.4l10.9-2.1L42.6,17.7z"/>
		<path fill="#FCFCFC" d="M44.7,20.4L56,19.1l0,1.6l-11.3,1.3L44.7,20.4z"/>
		<path fill="#FCFCFC" d="M61.8,21.6l-0.1,1.4c0.7,0.2,1.6,0.2,2.7,0.2c0.8,0,4.2-0.1,5.2-0.1c-0.2,0.3-0.5,0.8-0.6,1.2l-4.8,0.1c-2.3,0-3.9-0.2-4.7-1.5c-0.2,0.7-0.6,1.3-1.1,1.8c-0.2-0.3-0.5-0.7-0.7-0.8c0.8-0.9,1-2.3,1.2-3.7l1.4,0.1c0,0.1-0.1,0.2-0.3,0.2c0,0.3-0.1,0.6-0.1,0.9c0.1,0.4,0.3,0.7,0.5,0.9l0.2-2.8l-2.3,0l0.1-1l5.6-0.1l-0.1,1l-2,0l-0.1,1l1.8,0l-0.1,1L61.8,21.6z M63.9,13.9l-0.3,4l-4.4,0.1l0.3-4L63.9,13.9z M62.4,15.4l0-0.6l-1.8,0l0,0.6L62.4,15.4z M62.3,16.9l0-0.6l-1.8,0l0,0.6L62.3,16.9z M64.7,15.7l1.4,0c0.1-0.3,0.2-0.5,0.3-0.8l-2.2,0l0.1-1l5.9-0.1l-0.1,1l-2.3,0c-0.1,0.3-0.3,0.5-0.4,0.8l2.1,0L69,21.1l-1,0c0.6,0.5,1.3,1,1.7,1.4L68.5,23c-0.3-0.4-1-1-1.5-1.4l0.9-0.5l-2.5,0l1.1,0.4c0,0.1-0.2,0.1-0.3,0.1c-0.5,0.5-1.4,1.1-2.2,1.5c-0.2-0.2-0.6-0.6-0.8-0.8c0.7-0.3,1.4-0.7,1.9-1.2l-0.7,0L64.7,15.7z M68,17.2l0-0.6l-2,0l0,0.5L68,17.2z M67.9,18.6l0-0.5l-2,0l0,0.5L67.9,18.6z M67.7,20.1l0-0.6l-2,0l0,0.6L67.7,20.1z"/>
		<path fill="#E97572" d="M21.8,8.3c-1.5-0.2-3.3,0.6-4.8,0.7c-1.2,0.1-3.9,0-2,1.5c1.2,0.9,2.5,1.6,3.8,2.3c1.1,0.6,2.7,2,3.8,0.8c1.1-1.3,1.1-4.4-0.5-5.3"/>
	</symbol>
	<symbol id="dashed-line" viewBox="0 0 504 8">
		<path fill="#E95854" d="M4.5,4.1C4.5,4.1,4.5,4.1,4.5,4.1L1,3.9c-0.6,0-1-0.5-1-1c0-0.6,0.5-1,1-1l3.5,0.2c0.6,0,1,0.5,1,1C5.5,3.6,5,4.1,4.5,4.1z"/>
		<path fill="#E95854" d="M111,7.7C111,7.7,111,7.7,111,7.7c-2.4,0-4.7,0-7.1,0c-0.6,0-1-0.5-1-1c0-0.6,0.5-1,1-1c0,0,0,0,0,0c2.4,0,4.7,0,7.1,0c0.6,0,1,0.4,1,1C112,7.2,111.5,7.7,111,7.7z M119.1,7.7c-0.5,0-1-0.4-1-1c0-0.6,0.4-1,1-1l7.1-0.1c0,0,0,0,0,0c0.5,0,1,0.4,1,1c0,0.6-0.4,1-1,1L119.1,7.7C119.1,7.7,119.1,7.7,119.1,7.7z M95.7,7.6C95.7,7.6,95.7,7.6,95.7,7.6c-2.4,0-4.8-0.1-7.1-0.1c-0.6,0-1-0.5-1-1c0-0.6,0.5-1,1-1c2.4,0.1,4.7,0.1,7.1,0.1c0.6,0,1,0.5,1,1C96.7,7.1,96.3,7.6,95.7,7.6z M134.3,7.5c-0.5,0-1-0.4-1-1c0-0.6,0.4-1,1-1l7.1-0.1c0.6,0,1,0.4,1,1c0,0.6-0.4,1-1,1L134.3,7.5C134.3,7.5,134.3,7.5,134.3,7.5z M149.5,7.3c-0.5,0-1-0.4-1-1c0-0.6,0.4-1,1-1l7.1-0.1c0.5,0,1,0.4,1,1c0,0.6-0.4,1-1,1L149.5,7.3C149.5,7.3,149.5,7.3,149.5,7.3z M80.5,7.2C80.5,7.2,80.5,7.2,80.5,7.2c-2.4-0.1-4.8-0.1-7.1-0.2c-0.6,0-1-0.5-1-1c0-0.6,0.5-1,1-1c2.4,0.1,4.7,0.1,7.1,0.2c0.6,0,1,0.5,1,1C81.5,6.8,81.1,7.2,80.5,7.2z M164.7,7.1c-0.5,0-1-0.4-1-1c0-0.6,0.4-1,1-1l7.1-0.1c0.6,0,1,0.4,1,1c0,0.6-0.4,1-1,1L164.7,7.1C164.7,7.1,164.7,7.1,164.7,7.1z M180,6.8c-0.5,0-1-0.4-1-1c0-0.6,0.4-1,1-1c2.4,0,4.7-0.1,7.1-0.2c0.5,0,1,0.4,1,1c0,0.6-0.4,1-1,1C184.7,6.7,182.3,6.7,180,6.8C180,6.8,180,6.8,180,6.8z M65.3,6.7C65.3,6.7,65.3,6.7,65.3,6.7c-2.4-0.1-4.8-0.2-7.1-0.3c-0.6,0-1-0.5-1-1c0-0.6,0.5-1,1-1c2.4,0.1,4.7,0.2,7.1,0.3c0.6,0,1,0.5,1,1C66.3,6.3,65.9,6.7,65.3,6.7z M195.2,6.4c-0.5,0-1-0.4-1-1c0-0.6,0.4-1,1-1c2.4-0.1,4.7-0.1,7.1-0.2c0.5,0,1,0.4,1,1c0,0.6-0.4,1-1,1C199.9,6.3,197.6,6.3,195.2,6.4C195.2,6.4,195.2,6.4,195.2,6.4z M50.1,6.1C50.1,6.1,50.1,6.1,50.1,6.1C47.7,6,45.3,5.9,43,5.8c-0.6,0-1-0.5-1-1s0.5-1,1-1c2.4,0.1,4.7,0.2,7.1,0.3c0.6,0,1,0.5,1,1C51.1,5.7,50.6,6.1,50.1,6.1z M210.4,6c-0.5,0-1-0.4-1-1c0-0.6,0.4-1,1-1c2.4-0.1,4.7-0.2,7.1-0.2c0.5-0.1,1,0.4,1,1c0,0.6-0.4,1-1,1C215.1,5.8,212.8,5.9,210.4,6C210.4,6,210.4,6,210.4,6z M34.9,5.5C34.9,5.5,34.9,5.5,34.9,5.5l-7.1-0.3c-0.6,0-1-0.5-1-1c0-0.6,0.5-1,1-1L35,3.5c0.6,0,1,0.5,1,1C35.9,5,35.4,5.5,34.9,5.5z M225.6,5.4c-0.5,0-1-0.4-1-1c0-0.6,0.4-1,1-1c1.5-0.1,2.9-0.1,4.4-0.2c0.9,0,1.8-0.1,2.7-0.1c0.6-0.1,1,0.4,1,1s-0.4,1-1,1c-0.9,0-1.8,0.1-2.7,0.1C228.5,5.3,227.1,5.4,225.6,5.4C225.6,5.4,225.6,5.4,225.6,5.4z M240.8,4.9c-0.5,0-1-0.4-1-1c0-0.6,0.4-1,1-1c2.4-0.1,4.7-0.1,7.1-0.1c0,0,0,0,0,0c0.5,0,1,0.4,1,1c0,0.6-0.4,1-1,1C245.6,4.8,243.2,4.9,240.8,4.9C240.8,4.9,240.8,4.9,240.8,4.9z M301.7,4.9c-0.6,0-1-0.4-1-1c0-0.6,0.4-1,1-1c2.4,0,4.7,0,7.1,0c0,0,0,0,0,0c0.5,0,1,0.4,1,1c0,0.6-0.4,1-1,1C306.4,4.8,304,4.9,301.7,4.9C301.7,4.9,301.7,4.9,301.7,4.9z M293.6,4.9C293.6,4.9,293.6,4.9,293.6,4.9c-2.4,0-4.7,0-7.1,0c-0.6,0-1-0.5-1-1c0-0.6,0.5-1,1-1c0,0,0,0,0,0c2.4,0,4.7,0,7.1,0c0.6,0,1,0.5,1,1C294.6,4.4,294.1,4.9,293.6,4.9z M278.3,4.8C278.3,4.8,278.3,4.8,278.3,4.8c-2.4,0-4.7,0-7.1,0c-0.6,0-1-0.5-1-1c0-0.6,0.5-1,1-1c0,0,0,0,0,0c2.4,0,4.7,0,7.1,0c0.6,0,1,0.5,1,1C279.3,4.3,278.9,4.8,278.3,4.8z M19.7,4.7C19.7,4.7,19.7,4.7,19.7,4.7l-7.1-0.3c-0.6,0-1-0.5-1-1c0-0.6,0.5-1,1-1l7.1,0.3c0.6,0,1,0.5,1,1C20.7,4.3,20.2,4.7,19.7,4.7z M316.9,4.7c-0.5,0-1-0.4-1-1c0-0.6,0.4-1,1-1c2.4,0,4.7-0.1,7.1-0.1c0.6,0,1,0.4,1,1c0,0.6-0.4,1-1,1C321.6,4.6,319.3,4.7,316.9,4.7C316.9,4.7,316.9,4.7,316.9,4.7z M256,4.7c-0.6,0-1-0.4-1-1c0-0.6,0.4-1,1-1c2.3,0,4.6,0,7,0h0.1c0.6,0,1,0.4,1,1s-0.4,1-1,1H263C260.7,4.7,258.3,4.7,256,4.7C256,4.7,256,4.7,256,4.7z M332.1,4.3c-0.5,0-1-0.4-1-1c0-0.6,0.4-1,1-1c1.8-0.1,3.6-0.1,5.5-0.2l1.6-0.1c0.5,0,1,0.4,1,1c0,0.6-0.4,1-1,1l-1.6,0.1C335.8,4.2,334,4.3,332.1,4.3C332.1,4.3,332.1,4.3,332.1,4.3z M347.3,3.7c-0.5,0-1-0.4-1-1c0-0.6,0.4-1,1-1c2.4-0.1,4.7-0.2,7.1-0.3c0.6-0.1,1,0.4,1,1c0,0.6-0.4,1-1,1C352.1,3.5,349.7,3.6,347.3,3.7C347.3,3.7,347.3,3.7,347.3,3.7z M362.5,3.1c-0.5,0-1-0.4-1-1c0-0.6,0.4-1,1-1c2.4-0.1,4.7-0.1,7.1-0.2c0.5,0,1,0.4,1,1c0,0.6-0.4,1-1,1C367.3,3,364.9,3.1,362.5,3.1C362.5,3.1,362.5,3.1,362.5,3.1z M491.4,2.9C491.4,2.9,491.3,2.9,491.4,2.9c-2.4-0.1-4.8-0.1-7.1-0.2c-0.6,0-1-0.5-1-1c0-0.6,0.5-1,1-1c2.4,0.1,4.7,0.1,7.1,0.2c0.6,0,1,0.5,1,1C492.3,2.5,491.9,2.9,491.4,2.9z M377.7,2.8c-0.5,0-1-0.4-1-1c0-0.6,0.4-1,1-1c2.4,0,4.7-0.1,7.1-0.1c0,0,0,0,0,0c0.5,0,1,0.4,1,1c0,0.6-0.4,1-1,1C382.5,2.7,380.1,2.7,377.7,2.8C377.7,2.8,377.7,2.8,377.7,2.8z M476.1,2.6C476.1,2.6,476.1,2.6,476.1,2.6c-2.4,0-4.7-0.1-7.1-0.1c-0.6,0-1-0.5-1-1c0-0.5,0.5-1,1-1c0,0,0,0,0,0c2.4,0,4.7,0.1,7.1,0.1c0.6,0,1,0.5,1,1C477.1,2.1,476.7,2.6,476.1,2.6z M392.9,2.5c-0.5,0-1-0.4-1-1c0-0.6,0.4-1,1-1c2.4,0,4.7-0.1,7.1-0.1c0.6,0,1,0.4,1,1c0,0.6-0.4,1-1,1C397.7,2.5,395.3,2.5,392.9,2.5C393,2.5,393,2.5,392.9,2.5z M408.2,2.4c-0.5,0-1-0.4-1-1c0-0.6,0.4-1,1-1c2.4,0,4.7,0,7.1,0c0,0,0,0,0,0c0.6,0,1,0.4,1,1c0,0.6-0.4,1-1,1C412.9,2.4,410.5,2.4,408.2,2.4C408.2,2.4,408.2,2.4,408.2,2.4z M460.9,2.4C460.9,2.4,460.9,2.4,460.9,2.4l-7.1,0c-0.6,0-1-0.5-1-1c0-0.6,0.4-1,1-1c0,0,0,0,0,0l7.1,0c0.6,0,1,0.5,1,1C461.9,1.9,461.5,2.4,460.9,2.4z M445.7,2.3C445.7,2.3,445.7,2.3,445.7,2.3l-7.1,0c-0.6,0-1-0.4-1-1s0.4-1,1-1c0,0,0,0,0,0l7.1,0c0.6,0,1,0.5,1,1S446.3,2.3,445.7,2.3z M423.4,2.3c-0.6,0-1-0.4-1-1s0.4-1,1-1c2.4,0,4.7,0,7.1,0c0.6,0,1,0.4,1,1s-0.4,1-1,1C428.1,2.3,425.8,2.3,423.4,2.3C423.4,2.3,423.4,2.3,423.4,2.3z"/>
		<path fill="#E95854" d="M503,3.3C503,3.3,503,3.3,503,3.3l-3.5-0.1c-0.6,0-1-0.5-1-1c0-0.6,0.5-1,1-1l3.5,0.1c0.6,0,1,0.5,1,1C504,2.9,503.5,3.3,503,3.3z"/>
	</symbol>
	<symbol id="bg-cost" viewBox="0 0 166 32">
		<path fill="#E95854" d="M165.6,11.9c-0.5-2.2-1.8-3.5-3.2-5.2c-5.3-6.6-16.4-7-24.1-6.2c-7.2,0.7-14.7,0.1-21.9,1.1c-4.3,0.6-8.9,0.2-13.5-0.4C92.1,0,81.5,0.1,70.7,1.2c-3.1,0.3-6.1,0.1-9,0.7c-6,0-12.3-1.3-18.2-1.6c-5.1-0.3-10.4-0.5-15.4,0c-2.5,0.3-5,0.6-7.6,0.8C16.1,1.6,11.8,1,7.7,3.4C3.9,5.7,1.1,9.6,0.2,14.3c-0.6,3,0.1,6.3,1.5,9c0.8,1.6,1.3,2.9,2.7,3.9c1.2,0.9,2.5,1.6,3.8,2.4c4,2.6,10.5,2.3,15.1,1.8c4.1-0.4,7.5-0.4,11.7,0.2c5.8,0.7,12-0.1,17.8-0.1c23.4,0.2,47.2,1.1,70.6-0.2c5.4-0.3,10.5-1.1,15.9-1.1c2.7,0,5.2,0.5,7.8,0.6c5,0.9,10.9,0,14.5-3.9c2.3-2.4,3.5-5.1,4.1-8.3C166.2,16.5,166,14.1,165.6,11.9z"
	/>
	</symbol>
	<symbol id="bg-step" viewBox="0 0 520 61">
		<path fill="#FFFFFF" stroke="#E95854" stroke-miterlimit="10" d="M473.1,9.5c-2.4,2.5-4.4,5.4-5.8,8.4c-1.7,3.9-2.5,8.2-2,12.5c0.7,4.7,2.1,10.1,5,14c1.9,2.6,3.8,4.3,6.6,5.8c2.6,1.4,5.1,2.1,7.7,3.4c5.3,2.5,12.1,1.3,17.4-0.3c2.6-0.8,4.7-2.6,6.9-4.1c2.1-1.5,4.4-3.4,5.8-5.7c6.9-11.4,5.9-28.1-5.8-36.1c-2.6-1.8-5.3-4-8.3-5.2c-3.5-1.4-7.5-1.4-11.1-1C483.3,1.8,477.5,5,473.1,9.5z"/>
		<path fill="#FFFFFF" stroke="#E95854" stroke-miterlimit="10" d="M358.8,10.9c-3.4,2.7-6.9,6.3-8.6,9.7c-6.4,12.4-0.8,30.9,12.2,36.9c5.2,2.4,12.4,3,18,2.4c5.6-0.6,12-3.5,15.8-7.6c4.3-4.5,6.6-9.5,7.7-15.6c0.7-4.1,0.5-8.5-0.4-12.6c-0.9-4.1-3.4-6.6-6-9.8c-4.7-5.8-10.7-9.8-18.4-10c-5.8-0.2-11.8,1.2-16.8,4.2C361.3,9,360.1,9.9,358.8,10.9z"/>
		<path fill="#FFFFFF" stroke="#E95854" stroke-miterlimit="10" d="M132.6,7.1c-7.1,4.3-12.4,11.6-14.1,20.3c-1.1,5.6,0.3,11.7,2.7,16.8c1.4,2.9,2.5,5.4,5.1,7.4c2.3,1.7,4.8,3,7.2,4.6c4.8,3.1,10.6,3.3,16.1,3.4c2.7,0,5.1-1.5,7.4-2.5c3.3-1.4,6.5-2.4,9.2-4.9c11.7-10.8,11.8-27.9,2.1-39.8c-3.7-4.6-11-7.7-16.7-8.8C144.8,2.4,138.2,3.8,132.6,7.1z"/>
		<path fill="#FFFFFF" stroke="#E95854" stroke-miterlimit="10" d="M242.3,11.4c-0.1,0.1-0.1,0.1-0.2,0.1c-2.6,2.1-3.9,4.9-5.6,7.7c-2,3.2-3.3,7.1-3.4,10.8c-0.4,8.9,3.9,18.4,11.9,22.5c4.7,2.4,8.9,5,14.4,4.9c2.2,0,4.5,0.1,6.6-0.1c3.2-0.4,6.3-2.7,8.7-4.6c5.2-4.2,8.9-8.1,10.9-14.6c0.9-2.8,1.1-5.4,1.1-8.3c0-4.5-0.1-7.5-2.4-11.4c-4.7-8-11.7-12.9-21-13.2c-3.6-0.1-7.6-0.4-11.1,0.5C248.5,6.7,245.2,9.1,242.3,11.4z"/>
		<path fill="#FFFFFF" stroke="#E95854" stroke-miterlimit="10" d="M15.5,8.4c-3.6,2-6.8,4.5-9.3,7.3c-3,3.4-4.2,7.6-4.9,12C-0.1,37.8,3,48.8,11.9,54.5c12.6,8.1,28.9,5.2,37.9-6.6c6.7-8.7,9-24.1,2.9-33.7C44.4,1.2,27.8,1.6,15.5,8.4z"/>
	</symbol>
</svg>