<svg style="display: none;" version="1.1" xmlns="http://www.w3.org/2000/svg" xmlns:xlink="http://www.w3.org/1999/xlink">
	<symbol id="logo" viewBox="0 0 140 40">
		<path fill="#E60012" d="M38.5,15.6c0.6-0.1,0.6-0.7,0.6-0.9c-0.1-0.5-0.5-0.4-1-0.3c-0.5,0.1-0.3-0.5-0.4-0.7c0-0.2-0.2-0.4-0.4-0.3c-0.7,0.1-0.3,1-0.6,1.1c-0.3,0.1-0.3-0.4-0.3-0.5c0-0.1-0.1,0.1-0.3-0.9c0-0.1,0-0.3-0.3-0.3c-0.3,0.1-1.8,0.5-1.9,0.6c-0.1,0.1-0.5,0.2-0.4,0.5c0.1,0.3,0.2,0.2,0.4,0.2c0.2,0,1.7-0.6,1.8-0.3c0.1,0.4-0.4,0.5-0.4,0.5s-0.2-0.2-0.3-0.2c-0.1,0-0.2,0.1-0.2,0.3c0,0.2,0.3,0.4,0.3,0.5c0,0.1,0,0.2-0.1,0.2c-0.3,0.1-0.4-0.7-0.4-0.8c0-0.1-0.2-0.3-0.3-0.3c-0.1,0-0.2,0.2-0.1,0.5c0.1,0.3,0.2,0.2,0.3,0.5c0.1,0.3-0.5,0.3-0.7,0.3c-0.1,0-0.2,0.1-0.2,0.2c0.1,0.5,1.2,0.2,1.2,0.2s0.2,1.1,0.5,1c0.2,0,0.2-0.2,0.2-0.3c0-0.2-0.5-0.7-0.1-0.8c0.3-0.1,0.3,0.3,0.4,0.4c0,0.1,0.2,0.2,0.2,0.2c0.1,0,0.1-0.2,0.2-0.2c0.1,0,0.5,0.3,0.6,0.7c0.1,0.4-0.1,0.2-1.1,0.4c-1.1,0.2-0.9-0.2-0.9-0.3c0-0.1-0.1-0.3-0.4-0.3c-0.3,0.1-0.5,0.4-0.5,0.8c0.2,1,1.4,1,3.1,0.6c0.4-0.1,0.6-0.5,0.6-0.6c0-0.1-0.2-0.1-0.3-0.2c-0.3-1.2-0.4-1.5-0.1-1.6c0.4-0.1,0.5,0.3,0.5,0.4c0.1,0.5,0.6,0.6,0.7,0.6c0.1,0,0.3-0.1,0.2-0.3c0-0.2-0.3-0.4-0.4-0.5C38.3,15.7,38.4,15.6,38.5,15.6 M36.1,15.5c-0.2,0-0.5-0.3-0.6-0.6c0-0.1,0-0.2,0.2-0.2c0.2,0,0.4,0,0.4,0.2c0,0.1,0,0.2,0,0.3C36.2,15.2,36.3,15.4,36.1,15.5z"/>
		<path fill="#E60012" d="M33.5,6.2c0.4,0.4,0.1,0.8,0,0.9c-0.1,0.1-1,0.8-1.8,1.6c-0.1,0.1-0.1,0.3,0,0.4c0.2,0.2,0.3,0.2,0.4,0.3c0.1,0.1,0.2,0.5,0.6,0.1c0.3-0.3,1-1,1.1-1.1c0.1-0.1,0.5,0,0.6,0.1c0.1,0.1,0,0.6-0.3,0.9c-0.3,0.3-0.7,0.5-0.9,0.7c-0.2,0.2-1.3,1-1.6,0.6c-0.2-0.1,0-0.7-0.1-0.9c-0.1-0.1-1.8-1.5-1.9-1.6c-0.1-0.1-0.3-0.1-0.4-0.2c-0.1-0.1-0.2-0.5,0-0.8c0.2-0.3,0.9-1.4,1.2-1.7c0.2-0.2,0.6,0,0.7,0.1c0.1,0.1,0.2,0.5-0.1,0.8c-0.3,0.3-1,1.1-0.7,1.4c0.3,0.3,0.3,0.2,0.4,0.2c0,0.1,0.3,0,0.4-0.2c0.2-0.2,1.4-1.6,1.6-1.9C32.9,5.9,33.4,6.1,33.5,6.2z"/>
		<path fill="#E60012" d="M24.4,1.4c0.2,0,0.6,0.4,0.5,0.8c-0.1,0.3-0.3,0.3-0.3,0.4c-0.1,0.4,2.7,2.2,2.7,2.5c0,0.3-0.9,0.3-1.4,0.1c-0.1,0-1.8-2.2-1.9-2.2c-0.1,0-2.5,1.6-2.8,1.6c-0.1,0-0.2-0.2-0.2-0.4C20.9,4.1,24,1.3,24.4,1.4z"/>
		<path fill="#E60012" d="M16.8,2.5c-0.2,0.1-0.4,0.6-1.3,0.9c-0.2,0.1-0.3,0.2-0.4,0C15,3.1,15.4,3,15.4,3s0.1-0.3,0.1-0.5c0-0.2,0.8-1,0.7-1.2c0-0.1-0.2-0.4-0.4-0.3c-0.5,0.2-0.2,0.6-0.7,0.7c-0.2,0.1-0.4,0.2-0.5,0c0-0.1,0.3-0.3,0.3-0.4c0-0.1-0.3,0-0.4-0.1c0-0.1,0.6-0.4,0.5-0.7c0-0.1-0.1-0.2-0.2-0.2c-0.1,0-0.4,0.4-0.4,0.4c-0.1,0-0.2-0.2-0.3-0.3c-0.1-0.2-0.3-0.2-0.6-0.1c-0.6,0.2,0,0.9-0.3,1c-0.2,0.1-0.3-0.1-0.4,0c-0.1,0-0.3,0.1-0.2,0.4c0.2,0.5,0.7-0.1,0.8,0.2c0,0.1-0.5,0.2-0.4,0.4c0,0.1,0.1,0.1,0.3,0.1c0.1,0,0.3-0.2,0.3-0.1c0.1,0.2-1,0.4-1.1,0.5c-0.1,0-0.4,0.3-0.4,0.4c0,0.1,0.2,0.2,0.4,0.2c0.2-0.1,0.2-0.2,0.4-0.3c0.1,0,0.2,0.1,0.2,0.2c0.2,0.6,0.4,0.6,0.5,0.7c0,0.1,0,0.1-0.1,0.2c-0.1,0.1-1,0.3-1.2,0.3c-0.2,0.1-0.5,0.3-0.4,0.5c0.1,0.3,0.3,0.4,0.6,0.3C12.7,5.3,12.6,5,13,4.9c0.4-0.1,0.9-0.5,0.9-0.4c0.1,0.1-0.1,0.2-0.3,0.3c-0.2,0.1-0.4,0.4-0.3,0.8C13.4,5.9,13.8,6.1,14,6c0.2-0.1,0-0.2,0.4-0.4c0.4-0.2,0.3-0.9,0.2-1.1c-0.1-0.2-0.2-0.4,0.1-0.4c0.2-0.1,0.2-0.3,0.4-0.4c0.2-0.1,0.4,0,0.4,0.1c0.1,0.3-0.2,0.3-0.4,0.5c-0.5,0.4-0.2,0.7-0.1,1c0.1,0.2,0.3,0.2,0.4,0.2c0.1,0,0.2-0.1,0.1-0.3c-0.1-0.2-0.3-0.7-0.1-0.8c0.1,0,0.2,0,0.2,0c0.1,0.2,0.4,1.1,0.1,1.2c-0.1,0-0.3,0-0.2,0.3C15.6,6,16,6.1,16.3,6c0.3-0.1,0.6-0.6,0.5-0.9c-0.1-0.3-0.7-1.2-0.3-1.3c0.1,0,0.7-0.2,0.6-0.3c0-0.1-0.3-0.2-0.4-0.1c-0.1,0-0.3,0.3-0.4,0.3c-0.1,0-0.2,0-0.3-0.1c0-0.1,0.1-0.3,0.2-0.3c0.1,0,0.8-0.1,1-0.2c0.2-0.1,0.2-0.3,0.2-0.4C17.4,2.5,17,2.5,16.8,2.5 M14.2,5.3c-0.1,0-0.2-0.1-0.3-0.1c0-0.1,0.1-0.3,0.2-0.3c0.1,0,0.2,0.1,0.2,0.2C14.3,5.1,14.3,5.3,14.2,5.3 M14.2,3.4c-0.1,0-0.2-0.1-0.2-0.1s0-0.2,0.1-0.2c0,0,0.2,0,0.2,0.1C14.3,3.3,14.3,3.4,14.2,3.4 M13.7,2.9c-0.1,0,0-0.2,0-0.2s0.1-0.1,0.1-0.1c0,0,0.1,0.1,0,0.2C13.9,2.8,13.8,2.9,13.7,2.9 M14.9,2.1c0.2-0.1,0.2,0,0.3,0c0,0.1,0,0.1-0.2,0.2c-0.2,0.1-0.2,0-0.3-0.1C14.7,2.2,14.8,2.1,14.9,2.1 M14.9,2.6c0.1,0,0.2,0,0.2,0.1c0,0.1,0,0.1-0.1,0.1C14.9,2.9,14.8,2.7,14.9,2.6z"/>
		<path fill="#E60012" d="M5.3,5.9c-0.1-0.2-0.7-0.5-1-0.3C4.1,5.8,4.1,8.2,4.2,8.3c0.1,0.2,0.3,0.2,0.5,0.1c0.2-0.1,0.2-0.2,0.2-0.3C5,8,5.1,8,5.3,8.2c0.1,0.2,0,0.4,0.2,0.7c0.2,0.3,0.4,0.3,0.5,0.5c0.1,0.1,0,0.3,0.2,0.5C6.2,10,6.3,10.1,6.6,10c0.2-0.2,0.2-0.3,0.1-0.5C6.6,9.4,5.8,8.3,5.6,8C5.3,7.4,5.5,6.1,5.3,5.9z"/>
		<path fill="#E60012" d="M8.9,5.6C8.7,5.7,8.4,6.3,8.1,6.4C8,6.5,7.9,6.6,7.8,6.4c-0.2-0.3,0.6-1,0.1-1.8C7.7,4.4,7.3,4.2,7,4.4C6.8,4.5,6.9,5,6.8,5c-0.1,0-0.2,0-0.3,0.1C6.5,5.1,6.4,5.3,6.3,5.4C6.2,5.5,6,5.4,5.8,5.5C5.7,5.6,5.7,5.9,5.9,6C6,6.2,6.1,6.5,6.3,6.9C6.7,7.4,7,6.7,7.2,7c0.1,0.1,0.1,0.2,0,0.3C7,7.4,6.9,7.4,6.7,7.5C6.6,7.6,6,8,6.1,8.2c0.1,0.2,0.4-0.1,0.6,0.2c0.1,0.2,0.5,1.1,0.8,0.9c0.3-0.2-0.2-1-0.4-1.2C7,8,7.4,7.6,7.5,7.6c0.1,0,0.2,0,0.2,0.1C7.8,7.8,8,8.2,8.1,8.4C8.4,8.7,7.9,8.9,8,9.1c0.1,0.2,0.6,0.2,0.9,0C9.2,8.9,9.1,8.4,9,8.2C9,8.1,8.3,7.3,8.2,7.1C8.1,6.9,8.3,6.5,8.5,6.4c0.2-0.1,0.4-0.1,0.6-0.2c0.1-0.1,0.2-0.4,0.1-0.5C9.1,5.6,9,5.5,8.9,5.6 M6.9,6.4C6.8,6.5,6.6,6.2,6.5,6.1C6.4,6,6.5,5.7,6.6,5.6c0.1-0.1,0.3-0.2,0.4,0C7.2,5.8,7.1,6.3,6.9,6.4z"/>
		<path fill="#E60012" d="M9,6.9c-0.2,0.1-0.2,0.3,0,0.5C9,7.6,9.6,7.9,9.7,7.8c0.1-0.1,0.2-0.4,0.1-0.6C9.7,7,9.2,6.8,9,6.9z"/>
		<path fill="#E60012" d="M2.8,12.6c-0.5,0.3-1.8,0.3-1.9,0.5c-0.1,0.3,1.6,1.7,1.5,2c-0.1,0.1-0.4,0.3-0.5,0.2c-0.1-0.1-0.3-0.6-0.5-0.7c-0.3-0.1-0.8,0-0.9,0.2c-0.1,0.1,0.2,0.2,0,0.5c-0.1,0.1,0.2,0.4,0.3,0.5c0.1,0.1,0.2,0,0.4,0.1c0.2,0.1,2.1,1.4,2.4,1.6c0.2,0.1,0.7,0.1,0.7,0c0-0.1-0.1-0.5-0.4-0.6c-0.2-0.1-1.5-0.5-1.3-0.8C2.6,16,2.7,16,2.9,16c0.1,0.1,0,0.2,0.1,0.2c0.1,0,0.1,0,0.1-0.1c0-0.1,0-0.3,0-0.4c0-0.1,0.2-0.1,0.2,0c0.2,0.1,0.5,0.2,0.5,0.1c0.1-0.2-0.1-0.5,0-0.6c0.1-0.2,0-0.3-0.1-0.3c-0.2-0.1-0.5-0.4-0.5-0.5c-0.1,0-0.1,0-0.2,0.1c-0.1,0.2,0,0.3,0,0.4C3,15,2.9,15,2.9,15c-0.4-0.2-0.1-1.6,0-1.7c0.1-0.1,0.3-0.3,0.5-0.2c0.2,0.1,0.1,0.3,0.1,0.4c-0.1,0.1,0.1,0.2,0,0.3c0,0.1-0.1,0.1-0.1,0.2c-0.1,0.1,0.3,0.3,0.5,0.4c0.2,0.1,0.3,0,0.4-0.2c0.1-0.2,0-0.2,0.1-0.6c0.1-0.4-0.5-0.9-0.5-1c0.1-0.1,0.2-0.2,0.3-0.4c0.1-0.2,0.3-0.4,0-0.5C4,11.7,3.3,12.3,2.8,12.6 M2.4,16c0,0.1-0.3,0-0.4,0c-0.2-0.1-0.1-0.1-0.1-0.2c0.1-0.1,0.3-0.1,0.4,0C2.3,15.8,2.4,15.9,2.4,16 M1.1,15.2c0,0,0.2,0.3,0.2,0.4c0,0.1-0.3,0-0.4-0.1c-0.1-0.1-0.2-0.2-0.1-0.3C1,15.1,1.1,15.2,1.1,15.2 M3.3,15.1c0.1-0.1,0.1-0.1,0.2,0c0.1,0.1,0.1,0.1,0,0.2c0,0.1-0.2,0-0.2,0C3.3,15.2,3.2,15.2,3.3,15.1 M2.4,14.1C2.2,14,1.9,13.8,2,13.6c0.1-0.1,0.4-0.2,0.5-0.2C2.7,13.5,2.5,14.1,2.4,14.1 M4.1,14c-0.1,0.1-0.1,0.1-0.2,0.1c-0.1-0.1-0.2-0.2-0.1-0.3c0.1-0.1,0.1-0.1,0.2-0.1C4.1,13.8,4.1,13.9,4.1,14z"/>
		<path fill="#E51F1F" d="M4.7,13.7c0,0.1,0,0.2,0.1,0.2c0.1,0.1,0.4-0.2,0.7,0c0.2,0.1,0.3,0,0.4-0.1c0.1-0.1-0.2-0.4-0.4-0.5C5.4,13.2,4.8,13.6,4.7,13.7z"/>
		<path fill="#E51F1F" d="M4.8,14.5c0,0.1,0,0.2,0.1,0.2c0.1,0,0.3,0,0.3-0.1c0-0.1,0-0.2-0.1-0.2C5,14.4,4.8,14.4,4.8,14.5z"/>
		<path fill="#E51F1F" d="M4.5,15.3c0,0.1,0,0.2,0.1,0.2c0.1,0.1,0.3,0,0.3-0.1c0-0.1,0-0.2-0.1-0.3C4.6,15.1,4.5,15.2,4.5,15.3z"/>
		<path fill="#E51F1F" d="M3.8,16.2c-0.1,0.2,0.4,0.4,0.5,0.5c0.1,0.1,0.4-0.2,0.5-0.3c0-0.1-0.1-0.2-0.2-0.3C4.4,16,3.9,16.1,3.8,16.2z"/>
		<polygon fill="#003378" points="24.3,21.8 19,16.5 13.4,22.1 11,19.7 3.8,27 35,27 27.1,19 "/>
		<path fill="#003378" d="M16.1,15.6l-2.4-2.4L0,27c0.6,0,1.1,0,1.7,0l12-12.1l2.4,2.4l5.9-5.9L37.5,27c0.6,0,1.1,0,1.7,0L22,9.7L16.1,15.6z"/>
		<polygon fill="#003378" points="12.2,33.2 13.3,33.6 13.8,36.7 14.7,34.1 15.9,34.5 14.4,38.8 13.3,38.4 12.7,35.5 11.9,37.9 10.7,37.5 "/>
		<polygon fill="#003378" points="6.6,28.7 7.5,29.5 6.6,32.6 8.5,30.6 9.4,31.5 6.3,34.6 5.4,33.8 6.1,31 4.4,32.7 3.5,31.9 "/>
		<path fill="#003378" d="M9.3,36.8l0.9,0.6l0.9-4.7l-0.9-0.6l-3.5,3l0.9,0.6l0.8-0.7l1.1,0.7L9.3,36.8 M8.9,34.6l0.8-0.7l-0.2,1.1L8.9,34.6z"/>
		<path fill="#003378" d="M31.2,35.5l0.9-0.6l-4-2.6L27.2,33l1.5,4.4l0.9-0.7l-0.3-1l1-0.8L31.2,35.5 M29,35.1l-0.3-1l0.9,0.5L29,35.1z"/>
		<polygon fill="#003378" points="29,31.7 29.8,30.7 32.9,31.4 30.8,29.6 31.6,28.7 35,31.5 34.2,32.5 31.3,32 33.2,33.6 32.4,34.6 "/>
		<path fill="#003378" d="M21.6,36.2l1.1-0.1c0,0-0.5-1.4-1.8-1.3c-0.9,0.1-1.8,0.6-1.7,1.7c0.1,0.7,1,1.2,1.7,1.1c0.6-0.1,1,0.2,1.1,0.6c0,0.4-0.3,0.5-0.6,0.6c-0.7,0.1-0.8-0.5-0.8-0.5l-1.1,0.1c0,0,0.1,1.5,2,1.3c1.3-0.2,1.9-0.9,1.8-1.6c-0.1-0.7-0.8-1.4-2.1-1.2c-0.4,0-0.7-0.2-0.8-0.5c0-0.3,0.3-0.6,0.7-0.7C21.5,35.5,21.6,36.2,21.6,36.2z"/>
		<polygon fill="#003378" points="25,33.9 25.9,35.6 24.7,36.1 23.9,34.5 22.7,35.1 24.7,39 25.9,38.5 25.1,36.9 26.3,36.3 27,37.9 28.1,37.3 26.1,33.3 "/>
		<path fill="#231815" d="M47,11.1h9.1V8.8l1.9,0.2c0.3,0,0.5,0.1,0.5,0.3c0,0.1-0.1,0.3-0.4,0.6v1.3h8.9v2h-8.9v2.2h8.2V28c0,1.1-0.5,1.8-1.6,2.1c-0.8,0.3-1.6,0.4-2.4,0.4l-0.8-2.2l1.9-0.1c0.5,0,0.8-0.3,0.8-0.9V17.1H50v13.5h-2.1V15.2h8.2v-2.2H47V11.1z M54.1,17.7c0.7,0.7,1.5,1.5,2.2,2.5l-1,0.8H58l1.8-3.5l1.5,0.8c0.2,0.1,0.3,0.2,0.3,0.3c0,0.2-0.1,0.3-0.4,0.4L60.1,21h2.5v1.8H58v2h4.9v1.9H58V30h-1.9v-3.3h-4.9v-1.9h4.9v-2h-4.6V21h2.9c-0.5-0.8-1-1.6-1.6-2.2L54.1,17.7z"/>
		<path fill="#231815" d="M80.5,9l2.1,0.2c0.4,0,0.6,0.1,0.6,0.3c0,0.1-0.2,0.4-0.5,0.6v15.6h5.8v-12l2,0.1c0.4,0,0.6,0.1,0.6,0.3c0,0.1-0.1,0.3-0.4,0.6v15.6h-2.2v-2.5H74.1v2.5h-2.1V13.7l2,0.1c0.4,0,0.6,0.1,0.6,0.3c0,0.1-0.2,0.3-0.5,0.6v11h6.4V9z"/>
		<path fill="#231815" d="M104.8,9l2.2,0.2c0.4,0,0.6,0.1,0.6,0.3c0,0.3-0.2,0.5-0.6,0.8v1.3c0,1.8-0.1,3.5-0.3,5c0.8,2.2,1.8,4.1,2.9,5.7c1.5,2.1,3.7,4.2,6.6,6.3l-2.6,1.7c-2.8-2.7-4.8-5-6-7c-0.6-1-1.2-2.1-1.7-3.4c-0.1,0.3-0.2,0.5-0.2,0.7c-0.7,2-2,3.9-3.8,5.8c-1.3,1.4-2.9,2.7-4.7,3.8l-1.9-1.8c1.9-1.1,3.4-2.2,4.5-3.2c1.7-1.6,2.9-3.2,3.5-4.7c1.1-2.5,1.6-5.4,1.6-8.9v-0.8C105,10.3,104.9,9.7,104.8,9z"/>
		<path fill="#231815" d="M119.4,21.6H140v1.7h-3v1.4h2.1v1.7H137v2.1c0,0.8-0.2,1.4-0.6,1.7c-0.3,0.4-1.2,0.6-2.5,0.6l-0.8-2.1h1.3c0.4,0,0.7-0.2,0.7-0.7v-1.7h-6v-1.7h6v-1.4h-15.7V21.6z M120.3,14.4H140v3.4h-2.1V16h-17.7V14.4z M121,9.8h7.8V8.6l1.9,0.1c0.3,0,0.5,0.1,0.5,0.3c0,0.1-0.1,0.3-0.4,0.6v0.2h7.8v1.6h-7.8v0.7h6.5v1.5h-15v-1.5h6.5v-0.7H121V9.8z M122.3,16.7h14.4v1.5h-6.1v0.9h7.4v1.6h-16.9v-1.6h7.4v-0.9h-6.3V16.7z M121.3,24.1h6.5V30h-1.9v-0.8h-2.6v0.7h-2V24.1z M123.3,27.6h2.6v-1.8h-2.6V27.6z M130.8,26.3c0.6,0.5,1.2,1.2,1.8,2l-1.3,1.2c-0.6-0.9-1.1-1.6-1.7-2.1L130.8,26.3z"/>
	</symbol>
	<symbol id="btn-prev" viewBox="0 0 92 103">
		<path opacity="0.1" d="M75.2,94.9c2.6-1.5,6.4-3.3,6.7-5c-4-1.4-11.2-2.4-15.7-3.2c-6-1.1-12.5-1.4-18.6-1.9c-7.1-0.6-36.7-5.8-39.3-0.9c4,3.1,10.4,4.9,15.7,6.6c8.1,2.7,15.4,6.8,23.8,8.9c4.1,1,14.1,4.1,18,3.1c4.2-1.1,5.2-4.2,7.7-6.3C73.9,95.6,74.5,95.3,75.2,94.9z"/>
		<path fill="#B8A0A0" d="M50.9,30.9c0.6,19.8,2.7,39.4,3.3,59c0,1.4,0.5,7.3-2.1,5.7c-1-2.8-0.8-6.8-1.3-9.9c-0.9-5.8-1.4-11.7-1.7-17.6c-0.5-10.3-1-20.8-1.7-31C47.1,32.8,46.6,29.4,50.9,30.9z"/>
		<path fill="#A8514F" d="M47.2,33.1c0.7-0.2,1.3-0.4,1.8-0.6c0.5-0.2,1.2-0.4,1.9-0.6c0.2,6.6,0.6,13.2,1,19.8c-0.8-1.4-1.7-2.8-2.5-4.2c-0.6-1-1.1-2.1-1.6-3.2c-0.2-2.5-0.3-4.9-0.5-7.4C47.3,35.5,47.2,34.2,47.2,33.1z"/>
		<path fill="#BA4643" d="M60.1,19.8c2.7-2.9,3.9-3.6,7.9-4.9c4.8-1.6,9.3-4.4,14.4-5c0-0.1,0-0.2,0.2-0.2c0-0.6,0.2-1,0.9-1.1c0.9-0.2,2,0.8,2.6,1.3c1.2,0.9,2.3,1.9,3.3,3c0.9,0.9,1.8,1.8,2.2,3c0.2,0.7,0,1.1-0.4,1.3c0,0,0,0,0,0c-2.9,1.3-5.5,3-8,4.8c-2.3,1.6-4.7,2.8-6.7,4.7c2,3.1,6,6,8.7,8.6c2.1,1.9,5.8,4.4,6.9,7c0.7,1.1-3.2,1.3-3.9,1.3c-1.7,0.1-3.6-0.1-5.1-0.9c0.3-0.1,0.5-0.3,0.7-0.4c-1.2-0.5-2-1.6-3.3-2.6c-4.1-3.2-8.8-5.6-13-8.5c-2.2-1.6-4.5-3.1-6.7-4.6c-0.9-0.6-3.5-1.8-3.9-2.7C56,22.4,59,21,60.1,19.8z"/>
		<path fill="#E95854" stroke="#EF6060" stroke-width="2" d="M26.1,2C31.9,1.9,38.2,3,43.5,3.7c13.1,1.7,28.5,1.8,40,5.8C76.5,12,70.6,18.2,64,22c7.2,6.3,15.6,12,20.8,20.4c-7.2,0.5-14.6-1.8-21.7-2.9c-9.1-1.4-18.2-2.7-27.3-4.2c-4.5-0.7-10.3-1-15.3-2.2L2,16.6L26.1,2z"/>
		<path fill="#E97572" d="M49,5.4c-2.7-0.5-5.2-0.9-7.8-1.1c-2-0.2-4.3-0.2-6.4-0.5v0c2.2,0.7,4.5,1.9,6.6,2.6c3,1,6.2,1.5,9.4,2.1c3.2,0.6,6.2,0.9,9.3-0.1c1.4-0.4,2.6-1.2,4.1-1.4c1.6-0.2,3,0.7,4.4,0.3C59.4,5.7,54.4,6.4,49,5.4z"/>
		<path fill="#FCFCFC" d="M27.1,22.2l5.3,0.1l0.2,1.4l-11.3-0.1L21,22.2l4.4,0.1l-1.4-9l2,0.1c0,0.1-0.1,0.2-0.3,0.2l0.5,3.1l4.4,0.1l0.2,1.4l-4.4,0L27.1,22.2z"/>
		<path fill="#FCFCFC" d="M34.7,18.7L46,20.2l0.1,1.6l-11.3-1.5L34.7,18.7z"/>
		<path fill="#FCFCFC" d="M52.1,24.3l-0.2,1.4c0.7,0.4,1.5,0.7,2.6,1.1c0.8,0.2,4,1.2,5,1.5c-0.2,0.2-0.5,0.7-0.6,1L54.4,28c-2.2-0.7-3.7-1.4-4.4-3c-0.3,0.6-0.6,1.2-1.1,1.5c-0.1-0.3-0.4-0.8-0.7-1.1c0.8-0.6,1.1-2,1.3-3.4l1.4,0.5c0,0.1-0.1,0.1-0.3,0.1c-0.1,0.3-0.1,0.6-0.2,0.9c0.1,0.4,0.3,0.8,0.5,1.1l0.4-2.7L49,21.3l0.1-1l5.3,1.6l-0.1,1l-1.9-0.6l-0.1,1l1.7,0.5l-0.1,1L52.1,24.3z M54.5,17.1L54,21l-4.2-1.3l0.5-4L54.5,17.1z M53,18.2l0.1-0.6l-1.7-0.5l-0.1,0.6L53,18.2z M52.8,19.7l0.1-0.6l-1.7-0.5l-0.1,0.6L52.8,19.7z M55.2,19.2l1.3,0.4c0.1-0.2,0.3-0.5,0.4-0.7l-2.1-0.6l0.1-1l5.6,1.7l-0.1,1l-2.2-0.7c-0.1,0.2-0.3,0.5-0.4,0.7l2,0.6L59,26l-1-0.3c0.6,0.7,1.2,1.5,1.6,2l-1.2,0.1c-0.3-0.5-0.9-1.3-1.3-1.9l0.9-0.2l-2.4-0.7l1,0.7c0,0.1-0.2,0.1-0.3,0c-0.6,0.4-1.4,0.7-2.2,0.8c-0.2-0.3-0.5-0.8-0.7-1c0.7-0.1,1.4-0.3,1.9-0.7l-0.7-0.2L55.2,19.2z M58.2,21.7l0.1-0.5l-2-0.6l-0.1,0.5L58.2,21.7z M58,23.1l0.1-0.5l-2-0.6l-0.1,0.5L58,23.1z M57.8,24.6l0.1-0.6l-2-0.6L55.9,24L57.8,24.6z"/>
		<path fill="#E97572" d="M78.7,38.5c-0.6-0.7-1.2-1.7-2-2.2c-1-0.8-1.8-1.6-2.7-2.5c-0.8-0.7-2.3-0.9-2.5,0.3c-0.2,1.1-0.9,1.6-2,2c-1.3,0.4-2.7,0.6-4.1,0.7c-0.8,0.1-1.8,0.1-2.7,0.2c-0.1,0.1-0.2,0.2-0.1,0.3c0.2,0.3,0.6,0.3,0.9,0.3c0.4,0.1,0.9,0.1,1.3,0.1c1,0.1,2.1,0.3,3.1,0.6c1.1,0.3,2.1,0.3,3.2,0.5c1.3,0.2,2.4,0.5,3.7,0.4c1.2-0.1,2.3,0.4,3.4,0.7C79.9,40.4,79.5,39.2,78.7,38.5z"
		/>
		<path fill="#E97572" d="M6.2,17.9c-0.6-0.1-1.6-0.7-1.3-1.3c0.2-0.6,1-1,1.5-1.3c0.7-0.4,1.4-0.8,2.1-1.3c1-0.6,2.1-1.2,3.2-1.7c1-0.5,1.9-1.2,2.9-1.6c2.2-1,4.2-2.4,6.1-3.9c0.9-0.7,2.1-1.6,3.2-2.1c0.4-0.2,0.8-0.3,1.2-0.6c0.5-0.3,1.2-0.8,1.8-0.8c0.5,0.1,0.6,0.5,0.4,0.9c-0.2,0.3-0.5,0.5-0.8,0.7c-0.6,0.5-1.2,0.9-1.8,1.4c-1.6,1.3-3.4,2.4-5.1,3.6c-2.1,1.5-4,3.1-6.1,4.7c-1.1,0.8-2.2,1.5-3.4,2.2c-0.5,0.3-1,0.8-1.6,1c-0.6,0.2-1.4,0.3-2,0.1"/>
		<path fill="#962E2C" d="M73.4,25.7c0.3,0.2,0.6,0.3,1,0.2c0.7-0.1,1.3-0.5,1.8-0.9c2-1.5,3.8-3.2,5.7-4.8c1-0.8,5.6-4.9,1.9-5c-2.9-0.1-5.7,1.4-8.3,2.6c-1.4,0.7-2.8,1.3-4.1,2.1c-0.9,0.5-2.1,1-2.7,1.8c-0.6,0.9-0.3,1,0.6,1.5c0.7,0.4,1.4,0.8,2.1,1.2C72.1,24.8,72.8,25.3,73.4,25.7z"/>
	</symbol>
	<symbol id="btn-next" viewBox="0 0 92 103">
		<path opacity="0.1" d="M16.9,94.9c-2.6-1.5-6.4-3.3-6.7-5c4-1.4,11.2-2.4,15.7-3.2c6-1.1,12.5-1.4,18.6-1.9c7.1-0.6,36.7-5.8,39.3-0.9c-4,3.1-10.4,4.9-15.7,6.6c-8.1,2.7-15.4,6.8-23.8,8.9c-4.1,1-14.1,4.1-18,3.1c-4.2-1.1-5.2-4.2-7.7-6.3C18.1,95.6,17.5,95.3,16.9,94.9z"/>
		<path fill="#B8A0A0" d="M41.1,30.9c-0.6,19.8-2.7,39.4-3.3,59c0,1.4-0.5,7.3,2.1,5.7c1-2.8,0.8-6.8,1.3-9.9c0.9-5.8,1.4-11.7,1.7-17.6c0.5-10.3,1-20.8,1.7-31C44.9,32.8,45.5,29.4,41.1,30.9z"/>
		<path fill="#A8514F" d="M44.8,33.1c-0.7-0.2-1.3-0.4-1.8-0.6c-0.5-0.2-1.2-0.4-1.9-0.6c-0.2,6.6-0.6,13.2-1,19.8c0.8-1.4,1.7-2.8,2.5-4.2c0.6-1,1.1-2.1,1.6-3.2c0.2-2.5,0.3-4.9,0.5-7.4C44.7,35.5,44.9,34.2,44.8,33.1z"/>
		<path fill="#BA4643" d="M31.9,19.8c-2.7-2.9-3.9-3.6-7.9-4.9c-4.8-1.6-9.3-4.4-14.4-5c0-0.1,0-0.2-0.2-0.2c0-0.6-0.2-1-0.9-1.1C7.7,8.4,6.7,9.4,6,9.9c-1.2,0.9-2.3,1.9-3.3,3c-0.9,0.9-1.8,1.8-2.2,3c-0.2,0.7,0,1.1,0.4,1.3c0,0,0,0,0,0c2.9,1.3,5.5,3,8,4.8c2.3,1.6,4.7,2.8,6.7,4.7c-2,3.1-6,6-8.7,8.6c-2.1,1.9-5.8,4.4-6.9,7c-0.7,1.1,3.2,1.3,3.9,1.3c1.7,0.1,3.6-0.1,5.1-0.9c-0.3-0.1-0.5-0.3-0.7-0.4c1.1-0.5,2-1.6,3.3-2.6c4.1-3.2,8.8-5.6,13-8.5c2.2-1.6,4.5-3.1,6.7-4.6c0.9-0.6,3.5-1.8,3.9-2.7C36.1,22.4,33.1,21,31.9,19.8z"/>
		<path fill="#E95854" stroke="#EF6060" stroke-width="2" d="M65.9,2C60.1,1.9,53.8,3,48.6,3.7c-13.1,1.7-28.5,1.8-40,5.8C15.5,12,21.4,18.2,28,22c-7.2,6.3-15.6,12-20.8,20.4c7.2,0.5,14.6-1.8,21.7-2.9c9.1-1.4,18.2-2.7,27.3-4.2c4.5-0.7,10.3-1,15.3-2.2L90,16.6L65.9,2z"/>
		<path fill="#E97572" d="M52,9c-0.4,0.1-0.8,0.2-1.2,0.3c-0.7,0.2-2.2,0.5-2.3,1.4c-0.1,1.8,5.6,0.6,6.4,0.4c1-0.2,7.3-0.4,6.1-2.1c-0.8-1.1-2.7-0.9-3.8-0.9c-0.8,0-1.6,0.2-2.5,0.3C53.8,8.6,52.9,8.8,52,9z"/>
		<path fill="#E97572" d="M13.2,38.1c0.6-0.7,1.2-1.7,2-2.2c1-0.8,1.8-1.6,2.7-2.5c0.8-0.7,2.3-0.9,2.5,0.3c0.2,1.1,0.9,1.6,2,2c1.3,0.4,2.7,0.6,4.1,0.7c0.8,0.1,1.8,0.1,2.6,0.2c0.1,0.1,0.2,0.2,0.1,0.3c-0.2,0.3-0.6,0.3-0.9,0.3c-0.4,0.1-0.9,0.1-1.3,0.1c-1,0.1-2.1,0.3-3.1,0.6c-1.1,0.3-2.1,0.3-3.2,0.5c-1.3,0.2-2.4,0.5-3.7,0.4c-1.2-0.1-2.3,0.4-3.4,0.7C12,40,12.4,38.9,13.2,38.1z"/>
		<path fill="#E97572" d="M85.7,17.6c0.6-0.1,1.6-0.7,1.3-1.3c-0.2-0.6-1-1-1.5-1.3c-0.7-0.4-1.4-0.8-2.1-1.3c-1-0.6-2.1-1.2-3.2-1.7c-1-0.5-1.9-1.2-2.9-1.6c-2.2-1-4.2-2.4-6.1-3.9c-0.9-0.7-2.1-1.6-3.2-2.1c-0.4-0.2-0.8-0.3-1.2-0.6C66.3,3.6,65.6,3,65,3.1c-0.5,0.1-0.6,0.5-0.4,0.9c0.2,0.3,0.5,0.5,0.8,0.7c0.6,0.5,1.2,0.9,1.8,1.4c1.6,1.3,3.4,2.4,5.1,3.6c2.1,1.5,4,3.1,6.1,4.7c1.1,0.8,2.2,1.5,3.4,2.2c0.5,0.3,1,0.8,1.6,1c0.6,0.2,1.4,0.3,2,0.1"/>
		<path fill="#962E2C" d="M18.5,25.3c-0.3,0.2-0.6,0.3-1,0.2c-0.7-0.1-1.3-0.5-1.8-0.9c-2-1.5-3.8-3.2-5.7-4.8c-1-0.8-5.6-4.9-1.9-5c2.9-0.1,5.7,1.4,8.2,2.6c1.4,0.7,2.8,1.3,4.1,2.1c0.9,0.5,2.1,1,2.7,1.8c0.7,0.9,0.3,1-0.6,1.5c-0.7,0.4-1.4,0.8-2.1,1.2C19.8,24.5,19.1,24.9,18.5,25.3z"/>
		<path fill="#FCFCFC" d="M42.6,17.7L38,18.6c0,0.1-0.1,0.2-0.3,0.3l0.2,1.7l0.2-0.3c1.4,0.4,3.4,1.1,4.4,1.6l-0.9,1.5c-0.8-0.5-2.2-1.1-3.5-1.6l0.6,5.7L37,27.9L36.2,19l-4.4,0.9l-0.1-1.4l10.9-2.1L42.6,17.7z"/>
		<path fill="#FCFCFC" d="M44.7,20.4L56,19.1l0,1.6l-11.3,1.3L44.7,20.4z"/>
		<path fill="#FCFCFC" d="M61.8,21.6l-0.1,1.4c0.7,0.2,1.6,0.2,2.7,0.2c0.8,0,4.2-0.1,5.2-0.1c-0.2,0.3-0.5,0.8-0.6,1.2l-4.8,0.1c-2.3,0-3.9-0.2-4.7-1.5c-0.2,0.7-0.6,1.3-1.1,1.8c-0.2-0.3-0.5-0.7-0.7-0.8c0.8-0.9,1-2.3,1.2-3.7l1.4,0.1c0,0.1-0.1,0.2-0.3,0.2c0,0.3-0.1,0.6-0.1,0.9c0.1,0.4,0.3,0.7,0.5,0.9l0.2-2.8l-2.3,0l0.1-1l5.6-0.1l-0.1,1l-2,0l-0.1,1l1.8,0l-0.1,1L61.8,21.6z M63.9,13.9l-0.3,4l-4.4,0.1l0.3-4L63.9,13.9z M62.4,15.4l0-0.6l-1.8,0l0,0.6L62.4,15.4z M62.3,16.9l0-0.6l-1.8,0l0,0.6L62.3,16.9z M64.7,15.7l1.4,0c0.1-0.3,0.2-0.5,0.3-0.8l-2.2,0l0.1-1l5.9-0.1l-0.1,1l-2.3,0c-0.1,0.3-0.3,0.5-0.4,0.8l2.1,0L69,21.1l-1,0c0.6,0.5,1.3,1,1.7,1.4L68.5,23c-0.3-0.4-1-1-1.5-1.4l0.9-0.5l-2.5,0l1.1,0.4c0,0.1-0.2,0.1-0.3,0.1c-0.5,0.5-1.4,1.1-2.2,1.5c-0.2-0.2-0.6-0.6-0.8-0.8c0.7-0.3,1.4-0.7,1.9-1.2l-0.7,0L64.7,15.7z M68,17.2l0-0.6l-2,0l0,0.5L68,17.2z M67.9,18.6l0-0.5l-2,0l0,0.5L67.9,18.6z M67.7,20.1l0-0.6l-2,0l0,0.6L67.7,20.1z"/>
		<path fill="#E97572" d="M21.8,8.3c-1.5-0.2-3.3,0.6-4.8,0.7c-1.2,0.1-3.9,0-2,1.5c1.2,0.9,2.5,1.6,3.8,2.3c1.1,0.6,2.7,2,3.8,0.8c1.1-1.3,1.1-4.4-0.5-5.3"/>
	</symbol>
	<symbol id="checkbox-1" viewBox="0 0 21 21">
		<path fill="#BFACAC" d="M8.3,20.8L8.3,20.8c-2.6,0-4.9-0.2-6.9-0.7C1,20,0.7,19.7,0.6,19.2l-0.1-1.7C0.4,15,0.3,12.3,0.3,9.7c0-1.1,0.1-2.2,0.1-3.2c0.1-1.7,0.2-3.5,0-5c0-0.3,0.1-0.6,0.3-0.8c0.2-0.2,0.5-0.3,0.8-0.3c1.2,0.1,2.8,0,4.3,0c0.9-0.1,1.9-0.1,2.8-0.1c3.3,0,6.6,0.1,10.8,0.4c0.5,0,0.9,0.4,0.9,0.9c0.3,5.5,0.5,11.3,0.2,17.2c0,0.5-0.4,0.8-0.8,0.9C15.5,20.4,11.7,20.8,8.3,20.8z M2.6,18.3c1.7,0.3,3.6,0.5,5.7,0.5h0c3,0,6.5-0.3,10.3-1c0.2-5.2,0.1-10.4-0.2-15.3c-3.7-0.2-6.8-0.3-9.7-0.3c0,0,0,0,0,0C7.9,2.2,7,2.2,6,2.3C4.8,2.4,3.6,2.5,2.5,2.4c0,1.4,0,2.8-0.1,4.2C2.3,7.7,2.3,8.7,2.3,9.7c0,2.6,0.1,5.2,0.3,7.8L2.6,18.3z"/>
	</symbol>
	<symbol id="checkbox-2" viewBox="0 0 21 21">
		<path fill="#BFACAC" d="M18.5,20.7c-0.9,0-1.8-0.2-2.7-0.4l-0.5-0.1c-1.9-0.4-3.8-0.4-5.8-0.4c-1,0-2,0-3,0c-1.6,0-3.1,0-4.7,0c-0.5,0-1-0.4-1-1c0-1.9-0.2-3.8-0.3-5.7c-0.3-4-0.6-8.1,0.2-11.7C0.6,1,1,0.7,1.5,0.7c2.1,0.1,4.3,0,6.5-0.1c1.6,0,3.2-0.1,4.8-0.1c0.3,0,0.8,0,1.4-0.1C15,0.4,16,0.3,16.9,0.3c1.2,0,1.9,0.2,2.4,0.5c1.5,1.1,1.4,3.9,1.1,7.4c-0.1,0.8-0.1,1.5-0.1,1.9c0,0.9,0.2,1.9,0.3,3c0.2,2.2,0.5,4.5,0.2,6.6c-0.1,0.4-0.3,0.7-0.7,0.8C19.6,20.6,19,20.7,18.5,20.7z M3.5,17.9c1,0,2,0,3,0c1,0,2,0,3,0c2.1,0,4,0,6.1,0.4l0.5,0.1c1,0.2,2,0.4,2.8,0.3c0.1-1.7-0.1-3.5-0.3-5.4c-0.1-1.1-0.2-2.1-0.3-3.1c0-0.5,0-1.3,0.1-2.1c0.1-1.4,0.4-5.1-0.3-5.7l0,0c0,0-0.3-0.1-1.2-0.1c-0.8,0-1.7,0.1-2.5,0.2c-0.6,0.1-1.2,0.1-1.6,0.1c-1.6,0-3.2,0-4.7,0.1C6.2,2.7,4.2,2.8,2.3,2.7C1.8,5.9,2.1,9.4,2.4,13c0.1,1.6,0.2,3.2,0.3,4.8C2.9,17.9,3.2,17.9,3.5,17.9z"/>
	</symbol>
	<symbol id="dashed-line" viewBox="0 0 504 8">
		<path fill="#E95854" d="M5.5,3.1c0,0.5-0.5,1-1,1c0,0,0,0,0,0L1,3.9c-0.6,0-1-0.5-1-1c0-0.6,0.5-1,1-1l3.5,0.2C5.1,2.1,5.5,2.6,5.5,3.1z M156.6,5.2l-7.1,0.1c-0.6,0-1,0.5-1,1c0,0.5,0.5,1,1,1c0,0,0,0,0,0l7.1-0.1c0.6,0,1-0.5,1-1C157.6,5.6,157.1,5.2,156.6,5.2z M232.7,3.2c-0.9,0-1.8,0.1-2.7,0.1c-1.5,0.1-2.9,0.1-4.4,0.2c-0.6,0-1,0.5-1,1c0,0.5,0.5,1,1,1c0,0,0,0,0,0c1.5-0.1,2.9-0.1,4.4-0.2c0.9,0,1.8-0.1,2.7-0.1c0.6,0,1-0.5,1-1S233.2,3.1,232.7,3.2z M247.9,2.8C247.9,2.8,247.9,2.8,247.9,2.8c-2.4,0-4.7,0.1-7.1,0.1c-0.6,0-1,0.5-1,1c0,0.5,0.5,1,1,1c0,0,0,0,0,0c2.4-0.1,4.7-0.1,7.1-0.1c0.6,0,1-0.5,1-1C248.9,3.2,248.5,2.8,247.9,2.8z M141.4,5.4l-7.1,0.1c-0.6,0-1,0.5-1,1c0,0.5,0.5,1,1,1c0,0,0,0,0,0l7.1-0.1c0.6,0,1-0.5,1-1C142.4,5.8,141.9,5.4,141.4,5.4z M187,4.6c-2.4,0.1-4.7,0.1-7.1,0.2c-0.6,0-1,0.5-1,1c0,0.5,0.5,1,1,1c0,0,0,0,0,0c2.4,0,4.7-0.1,7.1-0.2c0.6,0,1-0.5,1-1C188,5,187.6,4.6,187,4.6z M217.4,3.7c-2.4,0.1-4.7,0.2-7.1,0.2c-0.6,0-1,0.5-1,1c0,0.5,0.5,1,1,1c0,0,0,0,0,0c2.4-0.1,4.7-0.2,7.1-0.2c0.6,0,1-0.5,1-1C218.5,4.2,218,3.7,217.4,3.7z M202.2,4.2c-2.4,0.1-4.7,0.1-7.1,0.2c-0.6,0-1,0.5-1,1c0,0.5,0.5,1,1,1c0,0,0,0,0,0c2.4-0.1,4.7-0.1,7.1-0.2c0.6,0,1-0.5,1-1C203.3,4.6,202.8,4.2,202.2,4.2z M171.8,4.9l-7.1,0.1c-0.6,0-1,0.5-1,1c0,0.5,0.5,1,1,1c0,0,0,0,0,0l7.1-0.1c0.6,0,1-0.5,1-1C172.8,5.4,172.4,4.9,171.8,4.9z M111,5.7c-2.4,0-4.7,0-7.1,0c0,0,0,0,0,0c-0.5,0-1,0.4-1,1c0,0.6,0.4,1,1,1c2.4,0,4.7,0,7.1,0c0,0,0,0,0,0c0.6,0,1-0.4,1-1C112,6.1,111.5,5.7,111,5.7z M50.2,4.1c-2.4-0.1-4.7-0.2-7.1-0.3c-0.5,0-1,0.4-1,1s0.4,1,1,1c2.4,0.1,4.7,0.2,7.1,0.3c0,0,0,0,0,0c0.5,0,1-0.4,1-1C51.1,4.6,50.7,4.2,50.2,4.1z M19.8,2.7l-7.1-0.3c-0.6,0-1,0.4-1,1c0,0.6,0.4,1,1,1l7.1,0.3c0,0,0,0,0,0c0.5,0,1-0.4,1-1C20.7,3.2,20.3,2.8,19.8,2.7z M35,3.5l-7.1-0.3c-0.5,0-1,0.4-1,1c0,0.6,0.4,1,1,1l7.1,0.3c0,0,0,0,0,0c0.5,0,1-0.4,1-1C35.9,3.9,35.5,3.5,35,3.5z M95.8,5.6c-2.4,0-4.7-0.1-7.1-0.1c-0.6,0-1,0.4-1,1c0,0.6,0.4,1,1,1c2.4,0.1,4.7,0.1,7.1,0.1c0,0,0,0,0,0c0.5,0,1-0.4,1-1C96.7,6,96.3,5.6,95.8,5.6z M80.6,5.2c-2.4-0.1-4.7-0.1-7.1-0.2c-0.5,0-1,0.4-1,1c0,0.6,0.4,1,1,1c2.4,0.1,4.7,0.1,7.1,0.2c0,0,0,0,0,0c0.5,0,1-0.4,1-1C81.5,5.7,81.1,5.3,80.6,5.2z M65.4,4.7c-2.4-0.1-4.7-0.2-7.1-0.3c-0.6,0-1,0.4-1,1c0,0.6,0.4,1,1,1c2.4,0.1,4.7,0.2,7.1,0.3c0,0,0,0,0,0c0.5,0,1-0.4,1-1C66.3,5.2,65.9,4.8,65.4,4.7z M126.2,5.6C126.2,5.6,126.2,5.6,126.2,5.6l-7.1,0.1c-0.6,0-1,0.5-1,1c0,0.6,0.5,1,1,1c0,0,0,0,0,0l7.1-0.1c0.6,0,1-0.5,1-1C127.2,6,126.7,5.6,126.2,5.6z M415.3,0.3C415.3,0.3,415.3,0.3,415.3,0.3c-2.4,0-4.7,0-7.1,0c-0.6,0-1,0.5-1,1c0,0.6,0.5,1,1,1c0,0,0,0,0,0c2.4,0,4.7,0,7.1,0c0.6,0,1-0.5,1-1C416.3,0.8,415.8,0.3,415.3,0.3z M430.5,0.3c-2.4,0-4.7,0-7.1,0c-0.6,0-1,0.5-1,1s0.4,1,1,1c0,0,0,0,0,0c2.4,0,4.7,0,7.1,0c0.6,0,1-0.4,1-1S431,0.3,430.5,0.3z M445.7,0.3l-7.1,0c0,0,0,0,0,0c-0.6,0-1,0.4-1,1s0.4,1,1,1l7.1,0c0,0,0,0,0,0c0.6,0,1-0.4,1-1S446.3,0.3,445.7,0.3z M400,0.4c-2.4,0-4.7,0-7.1,0.1c-0.6,0-1,0.5-1,1c0,0.5,0.5,1,1,1c0,0,0,0,0,0c2.4,0,4.7-0.1,7.1-0.1c0.6,0,1-0.5,1-1C401,0.9,400.6,0.5,400,0.4z M476.2,0.6c-2.4,0-4.7-0.1-7.1-0.1c0,0,0,0,0,0c-0.5,0-1,0.4-1,1c0,0.6,0.4,1,1,1c2.4,0,4.7,0.1,7.1,0.1c0,0,0,0,0,0c0.5,0,1-0.4,1-1C477.2,1,476.7,0.6,476.2,0.6z M460.9,0.4l-7.1,0c0,0,0,0,0,0c-0.6,0-1,0.4-1,1c0,0.6,0.4,1,1,1l7.1,0c0,0,0,0,0,0c0.6,0,1-0.4,1-1C461.9,0.8,461.5,0.4,460.9,0.4z M491.4,0.9c-2.4-0.1-4.7-0.1-7.1-0.2c-0.6,0-1,0.4-1,1c0,0.6,0.4,1,1,1c2.4,0.1,4.7,0.1,7.1,0.2c0,0,0,0,0,0c0.5,0,1-0.4,1-1C492.4,1.4,491.9,0.9,491.4,0.9z M384.8,0.6C384.8,0.6,384.8,0.6,384.8,0.6c-2.4,0-4.8,0.1-7.1,0.1c-0.6,0-1,0.5-1,1c0,0.5,0.5,1,1,1c0,0,0,0,0,0c2.4,0,4.7-0.1,7.1-0.1c0.6,0,1-0.5,1-1C385.8,1.1,385.4,0.6,384.8,0.6z M293.6,2.8c-2.4,0-4.7,0-7.1,0c0,0,0,0,0,0c-0.6,0-1,0.4-1,1c0,0.6,0.4,1,1,1c2.4,0,4.7,0,7.1,0c0,0,0,0,0,0c0.6,0,1-0.4,1-1C294.6,3.3,294.1,2.9,293.6,2.8z M308.8,2.8C308.8,2.8,308.8,2.8,308.8,2.8c-2.4,0-4.7,0-7.1,0c-0.6,0-1,0.4-1,1c0,0.6,0.4,1,1,1c0,0,0,0,0,0c2.4,0,4.7,0,7.1,0c0.6,0,1-0.5,1-1C309.8,3.3,309.3,2.8,308.8,2.8z M263.1,2.7H263c-2.3,0-4.6,0-7,0c-0.6,0-1,0.5-1,1c0,0.6,0.5,1,1,1c0,0,0,0,0,0c2.3,0,4.6,0,7,0h0.1c0.6,0,1-0.4,1-1S263.7,2.7,263.1,2.7z M278.3,2.8c-2.4,0-4.7,0-7.1,0c0,0,0,0,0,0c-0.6,0-1,0.4-1,1c0,0.6,0.4,1,1,1c2.4,0,4.7,0,7.1,0c0,0,0,0,0,0c0.5,0,1-0.4,1-1C279.3,3.2,278.9,2.8,278.3,2.8z M354.4,1.4c-2.4,0.1-4.7,0.2-7.1,0.3c-0.6,0-1,0.5-1,1c0,0.5,0.5,1,1,1c0,0,0,0,0,0c2.4-0.1,4.7-0.2,7.1-0.3c0.6,0,1-0.5,1-1C355.4,1.8,354.9,1.3,354.4,1.4z M369.6,0.9c-2.4,0.1-4.7,0.1-7.1,0.2c-0.6,0-1,0.5-1,1c0,0.5,0.5,1,1,1c0,0,0,0,0,0c2.4-0.1,4.7-0.1,7.1-0.2c0.6,0,1-0.5,1-1C370.6,1.4,370.1,0.9,369.6,0.9z M324,2.6c-2.4,0.1-4.7,0.1-7.1,0.1c-0.6,0-1,0.5-1,1c0,0.5,0.5,1,1,1c0,0,0,0,0,0c2.4,0,4.7-0.1,7.1-0.1c0.6,0,1-0.5,1-1C325,3,324.5,2.6,324,2.6z M339.2,2l-1.6,0.1c-1.8,0.1-3.6,0.2-5.5,0.2c-0.6,0-1,0.5-1,1c0,0.5,0.5,1,1,1c0,0,0,0,0,0c1.8-0.1,3.6-0.1,5.5-0.2l1.6-0.1c0.6,0,1-0.5,1-1C340.2,2.4,339.7,2,339.2,2z M503,1.3l-3.5-0.1c-0.6-0.1-1,0.4-1,1c0,0.6,0.4,1,1,1l3.5,0.1c0,0,0,0,0,0c0.5,0,1-0.4,1-1C504,1.8,503.6,1.3,503,1.3z"/>
	</symbol>
	<symbol id="solid-line" viewBox="0 0 506 8">
		<path fill="#E95854" d="M115.3,7.7c-28.5,0-56.9-1.3-84.5-2.6C21,4.6,10.9,4.1,1,3.7c-0.6,0-1-0.5-1-1c0-0.5,0.5-1,1-1c10,0.4,20.1,0.9,29.9,1.3C61.5,4.5,93,6,124.6,5.6c32.9-0.4,71.3-0.9,109-2.4c17.3-0.7,34.5-0.6,51.2-0.5c18.2,0.1,37,0.2,56.2-0.7c37.8-1.8,75.4-1.9,120.7-1.7c13.1,0,26.9,0.3,43.4,0.9c0.6,0,1,0.5,1,1c0,0.5-0.5,1-1,1c-16.6-0.6-30.3-0.9-43.4-0.9C416.4,2.2,378.8,2.3,341,4.1C321.8,5,303,4.9,284.7,4.8c-16.6-0.1-33.8-0.2-51.1,0.5c-37.7,1.5-76.1,2-109,2.4C121.5,7.7,118.4,7.7,115.3,7.7z"/>
	</symbol>
	<symbol id="bg-cost" viewBox="0 0 166 32">
		<path fill="#E95854" d="M165.6,11.9c-0.5-2.2-1.8-3.5-3.2-5.2c-5.3-6.6-16.4-7-24.1-6.2c-7.2,0.7-14.7,0.1-21.9,1.1c-4.3,0.6-8.9,0.2-13.5-0.4C92.1,0,81.5,0.1,70.7,1.2c-3.1,0.3-6.1,0.1-9,0.7c-6,0-12.3-1.3-18.2-1.6c-5.1-0.3-10.4-0.5-15.4,0c-2.5,0.3-5,0.6-7.6,0.8C16.1,1.6,11.8,1,7.7,3.4C3.9,5.7,1.1,9.6,0.2,14.3c-0.6,3,0.1,6.3,1.5,9c0.8,1.6,1.3,2.9,2.7,3.9c1.2,0.9,2.5,1.6,3.8,2.4c4,2.6,10.5,2.3,15.1,1.8c4.1-0.4,7.5-0.4,11.7,0.2c5.8,0.7,12-0.1,17.8-0.1c23.4,0.2,47.2,1.1,70.6-0.2c5.4-0.3,10.5-1.1,15.9-1.1c2.7,0,5.2,0.5,7.8,0.6c5,0.9,10.9,0,14.5-3.9c2.3-2.4,3.5-5.1,4.1-8.3C166.2,16.5,166,14.1,165.6,11.9z"
	/>
	</symbol>
	<symbol id="bg-step1" viewBox="0 0 56 56">
		<path d="M15.2,5.6c-3.5,1.9-6.6,4.4-9.1,7.1c-3,3.3-4.2,7.4-4.7,11.7C0,34.2,3,45,11.7,50.5c12.3,7.9,28.2,5.1,37-6.5c6.5-8.5,8.8-23.6,2.8-32.9C43.5-1.5,27.2-1.1,15.2,5.6z"/>
	</symbol>
	<symbol id="bg-step2" viewBox="0 0 56 56">
		<path d="M14.7,5c-6.8,4-11.8,11-13.3,19.2c-1,5.3,0.2,11.1,2.6,15.9c1.4,2.7,2.3,5.1,4.8,7c2.2,1.6,4.5,2.9,6.8,4.3c4.6,2.9,10,3.2,15.2,3.2c2.5,0,4.8-1.4,7-2.3c3.1-1.3,6.1-2.3,8.7-4.6c11.1-10.2,11.2-26.3,2-37.6c-3.5-4.4-10.4-7.3-15.8-8.3C26.1,0.6,19.9,1.9,14.7,5z"/>
	</symbol>
	<symbol id="bg-step3" viewBox="0 0 56 56">
		<path d="M10.3,7.9C10.2,8,10.2,8,10.1,8.1c-2.6,2.1-3.9,4.9-5.6,7.8C2.5,19.1,1.2,23,1,26.7C0.6,35.7,4.9,45.3,13,49.4c4.7,2.4,8.9,5,14.5,5c2.2,0,4.5,0.1,6.7-0.1c3.2-0.4,6.3-2.7,8.8-4.6c5.3-4.2,9-8.2,11-14.7c0.9-2.8,1.1-5.4,1.1-8.4C55,22,54.9,19,52.6,15C47.8,7,40.8,2,31.4,1.7c-3.6-0.1-7.6-0.4-11.1,0.5C16.6,3.2,13.2,5.6,10.3,7.9z"/>
	</symbol>
	<symbol id="bg-step4" viewBox="0 0 56 56">
		<path d="M11.7,7.8c-3.3,2.6-6.5,5.9-8.2,9.2c-6.1,11.8-0.8,29.4,11.6,35.1c5,2.3,11.8,2.9,17.1,2.3c5.3-0.6,11.4-3.3,15-7.3c4-4.3,6.3-9.1,7.3-14.8c0.7-3.9,0.5-8.1-0.3-12C53.4,16.4,51,14,48.6,11c-4.4-5.5-10.2-9.3-17.5-9.5c-5.5-0.2-11.2,1.1-15.9,4C14,6.1,12.9,6.9,11.7,7.8z"/>	</symbol>
	<symbol id="bg-step5" viewBox="0 0 56 56">
		<path d="M9,9.5c-2.4,2.5-4.4,5.3-5.7,8.4c-1.7,3.9-2.5,8.2-1.9,12.5c0.7,4.7,2.1,10.1,5,14c1.9,2.6,3.8,4.3,6.6,5.7c2.6,1.4,5.1,2.1,7.7,3.4c5.2,2.5,12.1,1.3,17.4-0.3c2.6-0.8,4.7-2.6,6.9-4.1c2.1-1.5,4.4-3.4,5.8-5.7c6.9-11.4,5.9-28.1-5.8-36.1c-2.6-1.8-5.3-4-8.3-5.2c-3.5-1.4-7.5-1.4-11.1-1C19.2,1.9,13.4,5,9,9.5z"/>
	</symbol>
	<symbol id="title-q1" viewBox="0 0 34 181">
		<path fill="#578E38" d="M8,34.6c-0.2,1.3-0.4,1.8-0.6,1.5l-1.5-2.5c0.6-0.5,0.9-1.4,0.8-2.6l0.3-18.6c-1.5,2.3-3.7,4.9-6.5,7.8L0,19.7C3.1,15.9,5.7,12,7.8,8.1c2.1-3.9,2.9-6.4,2.5-7.5l0.5-0.2l1.8,2.9c-0.4,0-0.9,0.6-1.6,1.8C10.3,6.3,9.4,7.9,8.3,10L8,34.6z M10.5,29.7c1.3-1.5,2.7-3.5,4.2-5.9c1.5-2.4,2.1-4.1,1.8-5l0.5-0.3l1.8,3.1c-0.5,0-1.5,1-3,3.1c-1.5,2.1-3.1,4-4.8,5.8L10.5,29.7z M11.7,19.1l-0.8-0.3c2.6-4.2,4.5-8.2,5.8-11.9c1.3-3.7,1.7-5.9,1.1-6.5L18.3,0l2.3,2.8c-0.4-0.2-0.9,0.4-1.4,1.7c-0.5,1.3-1.3,3.3-2.5,6l12-1.5l1.1-1.4l2,2.3c-0.6,0.1-1.4,0.7-2.2,1.8c-0.9,1.1-1.7,2.4-2.5,3.7l-0.8-0.3l2.3-4.6c-6.9,1.1-10.6,1.8-11.1,2.2l-1.1-1.4C15,14.1,13.4,16.7,11.7,19.1z M22.6,31.2c0.1,2.3-0.2,4-0.9,5.2c-0.7-1-2.5-2.8-5.4-5.2l0.3-0.5l4.3,2.5c0.3-1,0.4-2.1,0.3-3.2V17.7c0.1-1.7-0.3-3.1-1.1-4l0.5-0.5l2.8,2c-0.6,0.3-0.9,1.4-0.8,3.4V31.2z M25.5,19.5l0.5-0.5c3.2,3,5.5,5.2,7.1,6.6c-0.3,1.2-0.7,2.2-1.1,2.9C31.1,26.8,28.9,23.7,25.5,19.5z"/>
		<path fill="#936150" d="M5.8,71.4l-1.5-2.6C4.7,68.4,5,67.3,5,65.4L4.8,53.3c0-1.3-0.2-2.6-0.7-3.6l0.5-0.3L6,51.6l1.3-0.1c0.7-2.2,1.3-4,1.6-5.5c0.4-1.5,0.3-2.6-0.1-3.4l0.4-0.3l2.2,2.4c-0.4-0.1-0.8,0.5-1.3,1.7c-0.5,1.2-1.1,2.8-2,4.9l5.1-0.7L14,49l1.9,1.3L14.8,52c-0.1,3.9-0.2,7.2-0.3,10c-0.1,2.8-0.2,4.8-0.4,6.2c-0.2,1.3-0.4,2-0.5,2c-0.2,0-0.5-1-1.1-2.9l-6.3,0.5C6.3,70.4,6.1,71.6,5.8,71.4z M6.2,66.4c2.8-0.4,4.4-0.7,5-0.9l1.6,1.6c0.3-1,0.4-2.8,0.5-5.5c0-2.6,0.1-5.9,0.2-9.6L6,52.9v5.7c2.8-0.3,4.6-0.5,5.5-0.8l1.1,1.5c-1.3,0.1-3.4,0.4-6.5,0.8V66.4z M28.3,50.4l0.9-1.6l1.8,1.5l-1.1,1.1c-0.5,4.8-1,9-1.5,12.8c-0.6,3.8-1.4,6.7-2.4,8.8c-1.2-1.3-3-3.1-5.4-5.1l0.3-0.4l4.7,2.8c0.4-1,1-3.3,1.5-6.9c0.6-3.6,1-7.5,1.3-11.7l-9.3,1.1c-1,2.2-2.2,4.5-3.8,6.9l-0.5-0.4c1.6-3.1,2.8-5.9,3.7-8.2c0.9-2.3,1.5-4.3,1.8-5.9c0.4-1.6,0.4-2.5,0-2.9l0.4-0.3l2,2.3c-0.4-0.1-0.7,0.5-1.1,1.7c-0.4,1.2-1.1,3.1-2.1,5.6L28.3,50.4z M23.4,62.7c-1.3-2.2-2.7-4.4-4.4-6.6l0.4-0.4c1.7,1.5,3.3,3.1,4.8,4.6C24,61,23.8,61.8,23.4,62.7z"/>
		<path fill="#A04D30" d="M4.3,85.8c-0.1,4.9-1,8.4-2.8,10.5l-0.9-2.3c1.4-1.1,2.5-3.8,3.1-8.2H4.3z M12.2,90.1c-0.8-1.1-2.2-2.7-4-4.6L8,109.6c0,1.6-0.2,2.1-0.6,1.4l-1.5-2.6c0.6-0.4,0.9-1.1,0.8-2.2l0.3-26.3c0.1-2.2-0.2-3.6-0.8-4.5l0.3-0.3l2.6,2.3c-0.5,0.2-0.8,1.6-0.8,4.2l-0.2,3.1c1.5,0.9,3,1.8,4.3,2.6C12.5,88.2,12.4,89.1,12.2,90.1z M11.8,96.8l-0.6-0.3c1.3-2.4,2.3-4.4,3-6.2c0.7-1.7,1.3-3.5,1.8-5.4c0.5-1.8,0.6-3,0.2-3.5l0.3-0.3l2.2,2.3c-0.3,0.3-0.6,0.7-0.8,1.1c-0.2,0.4-0.9,2.1-2,5.1c0.9,0,2.8-0.2,5.5-0.6l0.2-9.2c0-2.3-0.3-3.7-0.8-4.5l0.3-0.3l2.6,2.2c-0.4,0.5-0.7,1.5-0.8,3.1l-0.2,8.6c3.9-0.5,6.2-0.9,6.8-1.1l1.7,1.5c-0.7,0-3.5,0.3-8.5,0.9v6.9c3.5-0.3,5.4-0.6,5.8-0.9l1.7,1.7c-1.3,0-3.8,0.2-7.5,0.6l-0.2,7.8c5.5-0.3,8.7-0.6,9.4-0.9l2,1.7c-1.7,0-5.7,0.2-11.8,0.5c-6.1,0.4-9.6,0.6-10.4,0.8l-2-1.5c2.3,0.1,6.1-0.1,11.4-0.5l0.2-7.8c-2.7,0.2-4.5,0.5-5.4,0.8l-1.8-1.5c1.5,0,3.9-0.2,7.2-0.6v-6.9c-2.1,0.2-3.5,0.5-4.3,0.8l-1.4-1.1C14.7,92.5,13.4,94.8,11.8,96.8z"/>
		<path fill="#6A3927" d="M10.2,129.2c-0.3,0.2-0.5,1-0.6,2.3l6.8-0.8l0.5-1.5l2,1.7l-1.1,1.1c-0.5,4.4-1,7.8-1.4,10.2c-0.4,2.4-0.9,4.2-1.5,5.4c-1.6-1.8-3.5-3.5-5.5-5.1l0.3-0.5l4.9,2.6c0.8-4.5,1.4-8.6,1.7-12.3L9.2,133c-1.2,6.1-4.1,11.1-8.6,15.2l-0.3-0.6c2.4-2.7,4.1-5.3,5.2-7.8c1.1-2.5,1.9-4.9,2.3-7.3c0.4-2.4,0.4-4,0-4.9l0.3-0.3L10.2,129.2z M6.9,127.9l-1.7-2c0.3-0.4,0.5-1.1,0.5-2l-0.2-5.7c0-1.2-0.2-2.5-0.6-3.7l0.6-0.3l1.4,2.3l8.8-0.9l0.8-1.7l2.2,1.7l-1.2,1.2l-0.8,6.6l0.9,1.5l-10.5,0.9C7.4,127.2,7.3,127.8,6.9,127.9z M6.9,117.9l0.2,6.5l8.2-0.8l0.6-6.6L6.9,117.9z M24.9,134.4c0.1,1.7-0.1,2.6-0.5,2.6l-1.7-2.9c0.6-0.3,0.9-1.2,0.8-2.6v-8.8c0.1-1.7-0.2-3.3-0.8-4.6l0.5-0.3l2.5,2.5c-0.6,0.6-0.9,1.4-0.8,2.5V134.4z M31.2,143.3c0.1,2.4-0.4,4.2-1.4,5.5c-1-1.4-3-3.3-6-5.7l0.3-0.8l5.2,3.2c0.3-0.7,0.5-1.9,0.5-3.5V117c0-1.7-0.3-3.2-0.9-4.3l0.5-0.5l2.6,2.5c-0.6,0.6-0.9,1.5-0.8,2.6V143.3z"/>
		<path fill="#C13F11" d="M17.3,175c-0.6-0.2-0.9-0.9-0.9-2.3c0-1.4,0.6-2.8,1.8-4.2c1.2-1.4,1.9-2.5,2-3.4c0.2-0.9-0.1-1.8-0.7-2.8c-0.7-0.9-1.5-1.4-2.4-1.4c-0.9,0-1.7,0.4-2.4,0.9c-0.7,0.6-1,1-1.1,1.4c-0.1,0.4,0.1,0.7,0.4,0.9c0.4,0.2,0.6,0.5,0.6,0.9c0,0.4-0.1,0.7-0.3,1c-0.2,0.2-0.5,0.4-0.9,0.4c-0.4,0-0.8-0.2-1-0.6c-0.3-0.4-0.4-0.9-0.2-1.7c0.1-0.8,0.6-1.6,1.4-2.3c0.8-0.8,1.6-1.3,2.6-1.5c0.9-0.2,1.8-0.2,2.7-0.1c0.9,0.2,1.7,0.7,2.6,1.5c0.9,0.9,1.3,1.9,1.1,3.3c-0.2,1.3-1,2.6-2.5,4C18.5,170.4,17.6,172.4,17.3,175z M19.2,178.8c0,0.6-0.2,1.1-0.6,1.5c-0.4,0.4-0.9,0.6-1.6,0.6c-0.6,0-1.1-0.2-1.5-0.6c-0.4-0.4-0.6-0.9-0.6-1.5c0-0.7,0.2-1.2,0.6-1.6c0.4-0.4,0.9-0.6,1.5-0.6c0.7,0,1.2,0.2,1.6,0.6C19,177.6,19.2,178.1,19.2,178.8z"/>
	</symbol>
	<symbol id="select-1-1" viewBox="0 0 21 21">
		<path fill="#6D5847" d="M10.7,15.4c-1.9,2.1-4.7,3.8-8.4,5.2l-0.2-0.3c3.6-1.7,6.2-3.4,7.9-5.2c-1.3-0.6-2.6-1.3-4.1-1.9c0.6-1.1,1.1-2.4,1.6-3.8c-3.3,0.3-5,0.5-5.2,0.6L1.3,8.8c1.1,0.1,3.3,0,6.6-0.3C8.5,6.7,9.1,5,9.5,3.5C10,1.9,10,1,9.7,0.6l0.3-0.2l1.3,1.4c-0.2-0.1-0.5,0.3-0.7,1.1c-0.3,0.9-0.9,2.8-1.8,5.5c6.2-0.5,9.5-0.8,9.8-1l1.2,1c-0.8,0-2.7,0.1-5.6,0.3c-0.8,2.6-1.7,4.6-2.8,6.1c2.2,1.2,3.8,2.1,4.8,2.6c0.1,0.6,0.1,1.2,0,1.7C15.1,18.1,13.3,16.9,10.7,15.4z M10.5,14.4c1.1-1.4,2-3.3,2.7-5.5L8.5,9.2l-1.5,3.7C8.1,13.4,9.3,13.9,10.5,14.4z"/>
	</symbol>
	<symbol id="select-1-2" viewBox="0 0 21 21">
		<path fill="#6D5847" d="M7.5,9.3c0.1,0.6,0,0.8-0.3,0.8L6.3,8.8c0.3-0.1,0.4-0.5,0.3-1.4l-0.1-4c0-0.9-0.1-1.7-0.3-2.5l0.3-0.1l0.9,1.5l9.5-0.9l0.5-0.8l1.1,0.9l-0.7,0.6L17,7.4l0.9,0.8L11,8.9l1,0.9c-0.2,0-0.3,0.2-0.4,0.5c-0.1,0.3-0.3,0.8-0.4,1.5l5.4-0.6l0.6-0.9l1.1,0.9L17.5,12c-1.2,3.9-2.3,6.7-3.4,8.3c-0.5-0.9-1.3-2.1-2.7-3.5l0.3-0.3l2.3,2c0.9-1.3,1.7-3.4,2.6-6.5l-5.7,0.7c-1.7,3.6-4.4,6.1-8.3,7.6l-0.2-0.3c3.6-1.7,6.1-4,7.6-7.1c-2.5,0.3-4,0.5-4.6,0.6l-1.1-0.9c1,0,3-0.2,6-0.5c0.5-1.6,0.6-2.5,0.3-2.8l0.1-0.3L7.5,9.3z M11.5,8V5.7C10.2,5.8,9.2,6,8.8,6.2L7.8,5.3c0.9,0,2.1-0.1,3.7-0.3V2.7L7.3,3.2l0.1,5.2L11.5,8z M17.1,2.2l-4.8,0.4v2.2c1.6-0.2,2.5-0.4,2.8-0.4l0.9,0.9c-1,0-2.2,0.1-3.6,0.3V8l4-0.4L17.1,2.2z"/>
	</symbol>
</svg>